<?xml version="1.0" encoding="utf-8"?>
<!-- Generator: Adobe Illustrator 25.4.1, SVG Export Plug-In . SVG Version: 6.00 Build 0)  -->
<svg version="1.1" xmlns="http://www.w3.org/2000/svg" xmlns:xlink="http://www.w3.org/1999/xlink" x="0px" y="0px"
	 viewBox="0 0 800 800" style="enable-background:new 0 0 800 800;" xml:space="preserve">
<style type="text/css">
	.st0{display:none;}
	.st1{display:inline;fill:#FFFFFF;}
	.st2{display:inline;}
	.st3{fill:#FFFFFF;}
	.st4{display:inline;fill:url(#SVGID_1_);}
	.st5{fill:#1F4497;}
	.st6{fill:#1F4696;}
	.st7{fill:url(#SVGID_00000158710274393057514500000010101603809066959767_);}
	.st8{fill:url(#SVGID_00000039823565043377624720000016280469316951483815_);}
	.st9{fill:url(#SVGID_00000066501951418556793890000012022979939669936547_);}
	.st10{fill:url(#SVGID_00000151521944577265701310000017947900138208252849_);}
</style>
<g id="All_Logos" class="st0">
	<rect x="-1412.3" y="1317.4" class="st1" width="800" height="800"/>
	<rect x="987.7" y="1317.4" class="st1" width="800" height="800"/>
	<rect x="187.7" y="1317.4" class="st2" width="800" height="800"/>
	<g class="st2">
		<g>
			<path class="st3" d="M323.4,1950.3h-25l-6.3,15c-0.7,1.7-1.7,2.2-3,2.2c-2,0-3.1-1.5-3.1-3.1c0-0.5,0.2-0.9,0.3-1.4l21-48.8
				c0.7-1.6,2-2.7,3.8-2.7s3.1,1.2,3.8,2.7l21,48.5c0.2,0.5,0.2,0.9,0.2,1.3c0,1.7-1.2,3.4-3.2,3.4c-1.4,0-2.6-0.9-3.1-2.2
				L323.4,1950.3z M310.9,1920.6l-9.9,23.5h19.8L310.9,1920.6z"/>
			<path class="st3" d="M360.6,1911.9c15.7,0,20.3,8.5,20.3,17c0,9-6.4,17.3-19.8,17.3c-2.2,0-5.5-0.1-8.2-0.3v18.4
				c0,1.8-1.5,3.3-3.3,3.3c-1.9,0-3.4-1.5-3.4-3.3v-48.9c0-1.8,1.5-3.3,3.3-3.3C353.1,1911.9,358,1911.9,360.6,1911.9z
				 M352.9,1939.5c2.7,0.2,5.3,0.4,8,0.4c8.1,0,13-4.2,13-11.1c0-6.5-3.9-10.7-12.6-10.7c-2.2,0-5.7,0.1-8.3,0.2V1939.5z"/>
			<path class="st3" d="M433.3,1911.6c1.8,0,3.3,1.5,3.3,3.2v49.4c0,1.8-1.5,3.3-3.3,3.3c-1.9,0-3.4-1.5-3.4-3.3v-22.1h-30.2v22.1
				c0,1.8-1.5,3.3-3.3,3.3c-1.9,0-3.4-1.5-3.4-3.3v-49.4c0-1.7,1.5-3.2,3.4-3.2c1.8,0,3.3,1.5,3.3,3.2v21H430v-21
				C430,1913.1,431.5,1911.6,433.3,1911.6z"/>
			<path class="st3" d="M481.9,1960.7c1.6,0,3.1,1.4,3.1,3.1s-1.4,3.1-3.1,3.1h-25.4c-1.8,0-3.3-1.5-3.3-3.3v-48.4
				c0-1.8,1.5-3.3,3.3-3.3h24.7c1.6,0,3.1,1.4,3.1,3.1s-1.4,3.1-3.1,3.1h-21.3v17.7h18.9c1.6,0,3.1,1.4,3.1,3.1s-1.4,3.1-3.1,3.1
				h-18.9v18.4L481.9,1960.7L481.9,1960.7z"/>
			<path class="st3" d="M497.3,1911.6c1.4,0,2.2,0.8,3.3,2.4l14.5,20l14.3-20c1.2-1.7,2.2-2.4,3.6-2.4c1.8,0,3.1,1.3,3.1,3
				c0,0.6-0.2,1.3-0.7,2l-16.1,22.4l17,23.6c0.4,0.5,0.5,1.1,0.5,1.7c0,1.6-1.2,3.2-3.1,3.2c-1.3,0-2.2-0.6-3.2-2l-15.6-21.4
				l-15.5,21.4c-0.9,1.2-2,2-3.3,2c-1.9,0-3.1-1.5-3.1-3.1c0-0.7,0.2-1.4,0.7-2l16.9-23.3l-15.9-22.2c-0.5-0.6-0.6-1.3-0.6-2
				C494,1913.1,495.2,1911.6,497.3,1911.6z"/>
			<path class="st3" d="M580,1911.9c15.7,0,20.3,8.5,20.3,17c0,9-6.4,17.3-19.8,17.3c-2.2,0-5.5-0.1-8.2-0.3v18.4
				c0,1.8-1.5,3.3-3.3,3.3c-1.9,0-3.4-1.5-3.4-3.3v-48.9c0-1.8,1.5-3.3,3.3-3.3C572.6,1911.9,577.5,1911.9,580,1911.9z
				 M572.3,1939.5c2.7,0.2,5.3,0.4,8,0.4c8.1,0,13-4.2,13-11.1c0-6.5-3.9-10.7-12.6-10.7c-2.2,0-5.7,0.1-8.3,0.2V1939.5z"/>
			<path class="st3" d="M652.8,1911.6c1.8,0,3.3,1.5,3.3,3.2v49.4c0,1.8-1.5,3.3-3.3,3.3c-1.9,0-3.4-1.5-3.4-3.3v-22.1h-30.2v22.1
				c0,1.8-1.5,3.3-3.3,3.3c-1.9,0-3.4-1.5-3.4-3.3v-49.4c0-1.7,1.5-3.2,3.4-3.2c1.8,0,3.3,1.5,3.3,3.2v21h30.2v-21
				C649.4,1913.1,650.9,1911.6,652.8,1911.6z"/>
			<path class="st3" d="M703.6,1950.3h-25l-6.3,15c-0.7,1.7-1.7,2.2-3,2.2c-2,0-3.1-1.5-3.1-3.1c0-0.5,0.2-0.9,0.3-1.4l21-48.8
				c0.7-1.6,2-2.7,3.8-2.7s3.1,1.2,3.8,2.7l21,48.5c0.2,0.5,0.2,0.9,0.2,1.3c0,1.7-1.2,3.4-3.2,3.4c-1.4,0-2.6-0.9-3.1-2.2
				L703.6,1950.3z M691.1,1920.6l-9.9,23.5H701L691.1,1920.6z"/>
			<path class="st3" d="M761.2,1967.5c-1.4,0-2.4-0.7-3.4-1.9L742,1945h-9v19.2c0,1.8-1.5,3.3-3.3,3.3c-1.9,0-3.4-1.5-3.4-3.3v-48.9
				c0-1.8,1.5-3.3,3.3-3.3c4.2-0.1,10.3-0.2,11.5-0.2c15,0,19.6,7.5,19.6,16.3c0,8.6-5.9,14-11.9,15.5l14.6,18.5
				c0.5,0.7,0.9,1.6,0.9,2.3C764.2,1966.1,763.1,1967.5,761.2,1967.5z M733.1,1938.7h8.1c6.4,0,12.5-3.9,12.5-10.4
				c0-5.7-3.1-10.1-12.9-10.1c-1.7,0-5.1,0.1-7.7,0.2V1938.7z"/>
			<path class="st3" d="M806,1945.7c-1.1,1.5-2.3,2.1-3.5,2.1c-1.2,0-2.4-0.6-3.5-2.1l-16.6-22.8v41.3c0,1.8-1.5,3.3-3.3,3.3
				c-1.9,0-3.4-1.5-3.4-3.3v-48.4c0-2.5,1.6-4.2,3.8-4.2c2,0,3.3,1.1,4.3,2.5l19.2,26.1l18.5-26.3c0.8-1.2,2-2.3,3.8-2.3
				c2.5,0,3.8,1.9,3.8,3.8v48.8c0,1.8-1.5,3.3-3.3,3.3c-1.9,0-3.4-1.5-3.4-3.3v-41.8L806,1945.7z"/>
			<path class="st3" d="M876.7,1950.3h-25l-6.3,15c-0.7,1.7-1.7,2.2-3,2.2c-2,0-3.1-1.5-3.1-3.1c0-0.5,0.2-0.9,0.3-1.4l21-48.8
				c0.7-1.6,2-2.7,3.8-2.7c1.9,0,3.1,1.2,3.8,2.7l21,48.5c0.2,0.5,0.2,0.9,0.2,1.3c0,1.7-1.2,3.4-3.2,3.4c-1.4,0-2.6-0.9-3.1-2.2
				L876.7,1950.3z M864.2,1920.6l-9.9,23.5h19.8L864.2,1920.6z"/>
		</g>
		<g>
			<path class="st3" d="M402.9,2035.6c-0.4-0.4-0.6-0.9-0.6-1.4c0-0.4,0.1-0.9,0.4-1.2c0.4-0.5,1-0.8,1.6-0.8c0.4,0,0.8,0.1,1.1,0.3
				c2.7,1.9,4.7,3.1,7.2,3.1c3.6,0,6.8-1.9,6.8-5.4c0-8.6-17.1-5.8-17.1-17.4c0-5.1,3.9-9.2,10.6-9.2c3.2,0,6,0.9,8.2,2.3
				c0.5,0.4,0.8,0.9,0.8,1.6c0,0.3-0.1,0.8-0.3,1.1c-0.5,0.6-1,0.9-1.7,0.9c-0.4,0-0.8-0.2-1.1-0.3c-1.7-1-3.3-1.6-5.6-1.6
				c-3.9,0-6.3,2.1-6.3,5.2c0,8.7,17.1,5.4,17.1,17.4c0,5.8-5.1,9.5-11.4,9.5C408.9,2039.6,405.8,2038.1,402.9,2035.6z"/>
			<path class="st3" d="M438.8,2021.6c0-10.2,7.5-18,17.9-18c10.2,0,17.9,7.4,17.9,18c0,10.4-7.7,18-17.9,18
				C446.5,2039.6,438.8,2032.3,438.8,2021.6z M443.3,2021.6c0,7.9,5.9,14,13.4,14c8,0,13.4-6.1,13.4-14c0-8.2-5.9-14-13.4-14
				C449.1,2007.6,443.3,2013.5,443.3,2021.6z"/>
			<path class="st3" d="M511.8,2035.1c1,0,2,0.9,2,2c0,1.1-0.9,2-2,2h-17.5c-1.2,0-2.1-0.9-2.1-2.1v-31.1c0-1.1,0.9-2.1,2.1-2.1
				c1.2,0,2.1,0.9,2.1,2.1v29.2L511.8,2035.1L511.8,2035.1z"/>
			<path class="st3" d="M543.8,2035.6c5.8,0,9.3-3.9,9.3-11.9v-17.8c0-1.1,1-2.1,2.1-2.1c1.2,0,2.1,0.9,2.1,2.1v18.6
				c0,10.7-6.4,15.1-13.6,15.1c-8.4,0-14.5-5.2-14.5-15.4v-18.3c0-1.1,1-2.1,2.2-2.1c1.1,0,2.1,0.9,2.1,2.1v17.5
				C533.5,2031,537.2,2035.6,543.8,2035.6z"/>
			<path class="st3" d="M589.1,2037.4c0,1.2-1,2.1-2.1,2.1c-1.2,0-2.2-0.9-2.2-2.1v-29.3h-10.3c-1,0-2-0.9-2-2c0-1.1,0.9-2,2-2h24.9
				c1,0,2,0.9,2,2c0,1.1-0.9,2-2,2h-10.3L589.1,2037.4L589.1,2037.4z"/>
			<path class="st3" d="M620.2,2003.9c1.2,0,2.1,0.9,2.1,2.1v31.5c0,1.2-0.9,2.1-2.1,2.1c-1.2,0-2.2-0.9-2.2-2.1v-31.5
				C618.1,2004.8,619,2003.9,620.2,2003.9z"/>
			<path class="st3" d="M641.1,2021.6c0-10.2,7.5-18,17.9-18c10.2,0,17.9,7.4,17.9,18c0,10.4-7.7,18-17.9,18
				S641.1,2032.3,641.1,2021.6z M645.6,2021.6c0,7.9,5.8,14,13.4,14c8,0,13.4-6.1,13.4-14c0-8.2-5.9-14-13.4-14
				C651.3,2007.6,645.6,2013.5,645.6,2021.6z"/>
			<path class="st3" d="M719.8,2005.8c0-1.1,0.9-1.9,2-1.9c1.1,0,2,0.9,2,1.9v31.5c0,1.2-0.7,2.1-1.8,2.1c-1,0-1.7-0.5-2.5-1.6
				l-20.9-26.4v26c0,1.1-0.9,1.9-2,1.9c-1.1,0-2-0.9-2-1.9v-31.3c0-1.2,0.6-2.3,2-2.3c1,0,1.7,0.5,2.7,1.8l20.6,26.1V2005.8z"/>
			<path class="st3" d="M741.9,2035.6c-0.4-0.4-0.6-0.9-0.6-1.4c0-0.4,0.2-0.9,0.5-1.2c0.4-0.5,1-0.8,1.5-0.8c0.4,0,0.8,0.1,1.2,0.3
				c2.7,1.9,4.7,3.1,7.2,3.1c3.7,0,6.9-1.9,6.9-5.4c0-8.6-17.1-5.8-17.1-17.4c0-5.1,3.9-9.2,10.6-9.2c3.2,0,6,0.9,8.2,2.3
				c0.5,0.4,0.8,0.9,0.8,1.6c0,0.3-0.1,0.8-0.3,1.1c-0.5,0.6-1.1,0.9-1.7,0.9c-0.4,0-0.8-0.2-1.2-0.3c-1.6-1-3.2-1.6-5.6-1.6
				c-3.9,0-6.3,2.1-6.3,5.2c0,8.7,17.1,5.4,17.1,17.4c0,5.8-5.1,9.5-11.4,9.5C747.9,2039.6,744.8,2038.1,741.9,2035.6z"/>
		</g>
		<g>
			<path class="st3" d="M657.2,1380c-1.5-0.1-3-0.1-4.5-0.2c-8.5-0.5-15,7.5-12.9,15.7l78.5,301.7c2.1,8.1,11.3,11.8,18.5,7.7
				c50.4-28.8,85.2-82.2,87.6-144.4C828,1464.5,753.2,1383.7,657.2,1380z"/>
			<path class="st3" d="M500.9,1716.9c-12.7-5.2-21.7-17.7-21.7-32.3c0-8.2,2.9-15.8,7.6-21.8l-34.6-132.5c-2.1-7.9-13.3-7.9-15.4,0
				l-85.6,328.1c-1.3,5,2.5,10,7.7,10h171.2c5.2,0,9-4.9,7.7-10L500.9,1716.9z"/>
			<path class="st3" d="M713.8,1852l-119.4-459.5c-1.5-5.8-6.7-9.8-12.7-9.8H476c-8.6,0-14.8,8.1-12.7,16.4l65.2,253.1
				c0.1,0.3,0.2,0.6,0.3,0.9c11.8,5.6,20,17.6,20,31.6c0,7.6-2.5,14.7-6.6,20.4c0.1,0.3,0.1,0.6,0.2,0.9l39.3,152.6
				c1.5,5.8,6.7,9.8,12.7,9.8h106.6C709.7,1868.4,715.9,1860.3,713.8,1852z"/>
			<ellipse class="st3" cx="514" cy="1684.6" rx="20.8" ry="20.8"/>
		</g>
	</g>
	<g class="st2">
		<g>
			<path d="M1123.4,1950.3h-25l-6.3,15c-0.7,1.7-1.7,2.2-3,2.2c-2,0-3.1-1.5-3.1-3.1c0-0.5,0.2-0.9,0.3-1.4l21-48.8
				c0.7-1.6,2-2.7,3.8-2.7s3.1,1.2,3.8,2.7l21,48.5c0.2,0.5,0.2,0.9,0.2,1.3c0,1.7-1.2,3.4-3.2,3.4c-1.4,0-2.6-0.9-3.1-2.2
				L1123.4,1950.3z M1110.9,1920.6l-9.9,23.5h19.8L1110.9,1920.6z"/>
			<path d="M1160.6,1911.9c15.7,0,20.3,8.5,20.3,17c0,9-6.4,17.3-19.8,17.3c-2.2,0-5.5-0.1-8.2-0.3v18.4c0,1.8-1.5,3.3-3.3,3.3
				c-1.9,0-3.4-1.5-3.4-3.3v-48.9c0-1.8,1.5-3.3,3.3-3.3C1153.1,1911.9,1158,1911.9,1160.6,1911.9z M1152.9,1939.5
				c2.7,0.2,5.3,0.4,8,0.4c8.1,0,13-4.2,13-11.1c0-6.5-3.9-10.7-12.6-10.7c-2.2,0-5.7,0.1-8.3,0.2L1152.9,1939.5L1152.9,1939.5z"/>
			<path d="M1233.3,1911.6c1.8,0,3.3,1.5,3.3,3.2v49.4c0,1.8-1.5,3.3-3.3,3.3c-1.9,0-3.4-1.5-3.4-3.3v-22.1h-30.2v22.1
				c0,1.8-1.5,3.3-3.3,3.3c-1.9,0-3.4-1.5-3.4-3.3v-49.4c0-1.7,1.5-3.2,3.4-3.2c1.8,0,3.3,1.5,3.3,3.2v21h30.2v-21
				C1230,1913.1,1231.5,1911.6,1233.3,1911.6z"/>
			<path d="M1281.9,1960.7c1.6,0,3.1,1.4,3.1,3.1s-1.4,3.1-3.1,3.1h-25.4c-1.8,0-3.3-1.5-3.3-3.3v-48.4c0-1.8,1.5-3.3,3.3-3.3h24.7
				c1.6,0,3.1,1.4,3.1,3.1s-1.4,3.1-3.1,3.1h-21.3v17.7h18.9c1.6,0,3.1,1.4,3.1,3.1s-1.4,3.1-3.1,3.1h-18.9v18.4L1281.9,1960.7
				L1281.9,1960.7z"/>
			<path d="M1297.3,1911.6c1.4,0,2.2,0.8,3.3,2.4l14.5,20l14.3-20c1.2-1.7,2.2-2.4,3.6-2.4c1.8,0,3.1,1.3,3.1,3c0,0.6-0.2,1.3-0.7,2
				l-16.1,22.4l17,23.6c0.4,0.5,0.6,1.1,0.6,1.7c0,1.6-1.2,3.2-3.1,3.2c-1.3,0-2.2-0.6-3.2-2l-15.6-21.4l-15.5,21.4
				c-0.9,1.2-2,2-3.3,2c-1.9,0-3.1-1.5-3.1-3.1c0-0.7,0.2-1.4,0.7-2l16.9-23.3l-15.9-22.2c-0.5-0.6-0.6-1.3-0.6-2
				C1294,1913.1,1295.2,1911.6,1297.3,1911.6z"/>
			<path d="M1380,1911.9c15.7,0,20.3,8.5,20.3,17c0,9-6.4,17.3-19.8,17.3c-2.2,0-5.5-0.1-8.2-0.3v18.4c0,1.8-1.5,3.3-3.3,3.3
				c-1.9,0-3.4-1.5-3.4-3.3v-48.9c0-1.8,1.5-3.3,3.3-3.3C1372.6,1911.9,1377.5,1911.9,1380,1911.9z M1372.3,1939.5
				c2.7,0.2,5.3,0.4,8,0.4c8.1,0,13-4.2,13-11.1c0-6.5-3.9-10.7-12.6-10.7c-2.2,0-5.7,0.1-8.3,0.2L1372.3,1939.5L1372.3,1939.5z"/>
			<path d="M1452.8,1911.6c1.8,0,3.3,1.5,3.3,3.2v49.4c0,1.8-1.5,3.3-3.3,3.3c-1.9,0-3.4-1.5-3.4-3.3v-22.1h-30.2v22.1
				c0,1.8-1.5,3.3-3.3,3.3c-1.9,0-3.4-1.5-3.4-3.3v-49.4c0-1.7,1.5-3.2,3.4-3.2c1.8,0,3.3,1.5,3.3,3.2v21h30.2v-21
				C1449.4,1913.1,1450.9,1911.6,1452.8,1911.6z"/>
			<path d="M1503.6,1950.3h-25l-6.3,15c-0.7,1.7-1.7,2.2-3,2.2c-2,0-3.1-1.5-3.1-3.1c0-0.5,0.2-0.9,0.3-1.4l21-48.8
				c0.7-1.6,2-2.7,3.8-2.7s3.1,1.2,3.8,2.7l21,48.5c0.2,0.5,0.2,0.9,0.2,1.3c0,1.7-1.2,3.4-3.2,3.4c-1.4,0-2.6-0.9-3.1-2.2
				L1503.6,1950.3z M1491.1,1920.6l-9.9,23.5h19.8L1491.1,1920.6z"/>
			<path d="M1561.2,1967.5c-1.4,0-2.4-0.7-3.4-1.9L1542,1945h-9v19.2c0,1.8-1.5,3.3-3.3,3.3c-1.9,0-3.4-1.5-3.4-3.3v-48.9
				c0-1.8,1.5-3.3,3.3-3.3c4.2-0.1,10.3-0.2,11.5-0.2c15,0,19.6,7.5,19.6,16.3c0,8.6-5.9,14-11.9,15.5l14.6,18.5
				c0.6,0.7,0.9,1.6,0.9,2.3C1564.2,1966.1,1563.1,1967.5,1561.2,1967.5z M1533.1,1938.7h8.1c6.4,0,12.5-3.9,12.5-10.4
				c0-5.7-3.1-10.1-12.9-10.1c-1.7,0-5.1,0.1-7.7,0.2V1938.7z"/>
			<path d="M1606,1945.7c-1.1,1.5-2.3,2.1-3.5,2.1c-1.2,0-2.4-0.6-3.5-2.1l-16.6-22.8v41.3c0,1.8-1.5,3.3-3.3,3.3
				c-1.9,0-3.4-1.5-3.4-3.3v-48.4c0-2.5,1.6-4.2,3.8-4.2c2,0,3.3,1.1,4.3,2.5l19.2,26.1l18.5-26.3c0.8-1.2,2-2.3,3.8-2.3
				c2.5,0,3.8,1.9,3.8,3.8v48.8c0,1.8-1.5,3.3-3.3,3.3c-1.9,0-3.4-1.5-3.4-3.3v-41.8L1606,1945.7z"/>
			<path d="M1676.7,1950.3h-25l-6.3,15c-0.7,1.7-1.7,2.2-3,2.2c-2,0-3.1-1.5-3.1-3.1c0-0.5,0.2-0.9,0.3-1.4l21-48.8
				c0.7-1.6,2-2.7,3.8-2.7c1.9,0,3.1,1.2,3.8,2.7l21,48.5c0.2,0.5,0.2,0.9,0.2,1.3c0,1.7-1.2,3.4-3.2,3.4c-1.4,0-2.6-0.9-3.1-2.2
				L1676.7,1950.3z M1664.2,1920.6l-9.9,23.5h19.8L1664.2,1920.6z"/>
		</g>
		<g>
			<path d="M1202.9,2035.6c-0.4-0.4-0.6-0.9-0.6-1.4c0-0.4,0.2-0.9,0.4-1.2c0.4-0.5,1-0.8,1.6-0.8c0.4,0,0.8,0.1,1.2,0.3
				c2.7,1.9,4.7,3.1,7.2,3.1c3.7,0,6.9-1.9,6.9-5.4c0-8.6-17.1-5.8-17.1-17.4c0-5.1,3.9-9.2,10.6-9.2c3.3,0,6,0.9,8.2,2.3
				c0.5,0.4,0.8,0.9,0.8,1.6c0,0.3-0.1,0.8-0.3,1.1c-0.4,0.6-1.1,0.9-1.7,0.9c-0.4,0-0.8-0.2-1.2-0.3c-1.7-1-3.2-1.6-5.6-1.6
				c-3.9,0-6.3,2.1-6.3,5.2c0,8.7,17.1,5.4,17.1,17.4c0,5.8-5.1,9.5-11.4,9.5C1208.9,2039.6,1205.8,2038.1,1202.9,2035.6z"/>
			<path d="M1238.8,2021.6c0-10.2,7.5-18,17.9-18c10.2,0,17.9,7.4,17.9,18c0,10.4-7.7,18-17.9,18S1238.8,2032.3,1238.8,2021.6z
				 M1243.3,2021.6c0,7.9,5.8,14,13.4,14c8,0,13.4-6.1,13.4-14c0-8.2-5.9-14-13.4-14C1249.1,2007.6,1243.3,2013.5,1243.3,2021.6z"/>
			<path d="M1311.8,2035.1c1.1,0,1.9,0.9,1.9,2c0,1.1-0.9,2-1.9,2h-17.5c-1.2,0-2.1-0.9-2.1-2.1v-31.1c0-1.1,0.9-2.1,2.2-2.1
				c1.1,0,2.1,0.9,2.1,2.1v29.2L1311.8,2035.1L1311.8,2035.1z"/>
			<path d="M1343.8,2035.6c5.8,0,9.3-3.9,9.3-11.9v-17.8c0-1.1,0.9-2.1,2.2-2.1c1.2,0,2.1,0.9,2.1,2.1v18.6
				c0,10.7-6.4,15.1-13.6,15.1c-8.4,0-14.5-5.2-14.5-15.4v-18.3c0-1.1,0.9-2.1,2.1-2.1c1.2,0,2.1,0.9,2.1,2.1v17.5
				C1333.5,2031,1337.2,2035.6,1343.8,2035.6z"/>
			<path d="M1389.1,2037.4c0,1.2-0.9,2.1-2.1,2.1c-1.2,0-2.1-0.9-2.1-2.1v-29.3h-10.3c-1.1,0-1.9-0.9-1.9-2c0-1.1,0.9-2,1.9-2h24.9
				c1.1,0,1.9,0.9,1.9,2c0,1.1-0.9,2-1.9,2h-10.3V2037.4z"/>
			<path d="M1420.2,2003.9c1.2,0,2.1,0.9,2.1,2.1v31.5c0,1.2-0.9,2.1-2.1,2.1c-1.2,0-2.1-0.9-2.1-2.1v-31.5
				C1418.1,2004.8,1419,2003.9,1420.2,2003.9z"/>
			<path d="M1441.1,2021.6c0-10.2,7.4-18,17.9-18c10.2,0,17.9,7.4,17.9,18c0,10.4-7.7,18-17.9,18
				C1448.8,2039.6,1441.1,2032.3,1441.1,2021.6z M1445.6,2021.6c0,7.9,5.9,14,13.4,14c8,0,13.4-6.1,13.4-14c0-8.2-5.9-14-13.4-14
				C1451.3,2007.6,1445.6,2013.5,1445.6,2021.6z"/>
			<path d="M1519.8,2005.8c0-1.1,0.9-1.9,2-1.9c1.1,0,2,0.9,2,1.9v31.5c0,1.2-0.7,2.1-1.8,2.1c-1.1,0-1.7-0.5-2.6-1.6l-20.9-26.4v26
				c0,1.1-0.9,1.9-2,1.9c-1.1,0-2-0.9-2-1.9v-31.3c0-1.2,0.6-2.3,1.9-2.3c1.1,0,1.7,0.5,2.7,1.8l20.6,26.1L1519.8,2005.8
				L1519.8,2005.8z"/>
			<path d="M1541.9,2035.6c-0.4-0.4-0.6-0.9-0.6-1.4c0-0.4,0.2-0.9,0.4-1.2c0.4-0.5,1-0.8,1.6-0.8c0.4,0,0.8,0.1,1.2,0.3
				c2.7,1.9,4.7,3.1,7.2,3.1c3.7,0,6.9-1.9,6.9-5.4c0-8.6-17.1-5.8-17.1-17.4c0-5.1,3.9-9.2,10.6-9.2c3.2,0,6,0.9,8.2,2.3
				c0.5,0.4,0.8,0.9,0.8,1.6c0,0.3-0.1,0.8-0.3,1.1c-0.4,0.6-1.1,0.9-1.7,0.9c-0.4,0-0.8-0.2-1.2-0.3c-1.6-1-3.2-1.6-5.6-1.6
				c-3.9,0-6.3,2.1-6.3,5.2c0,8.7,17.1,5.4,17.1,17.4c0,5.8-5.1,9.5-11.4,9.5C1547.9,2039.6,1544.8,2038.1,1541.9,2035.6z"/>
		</g>
		<g>
			<path d="M1457.2,1380c-1.5-0.1-3-0.1-4.5-0.2c-8.5-0.5-15,7.5-12.9,15.7l78.5,301.7c2.1,8.1,11.3,11.8,18.5,7.7
				c50.4-28.8,85.2-82.2,87.6-144.4C1628,1464.5,1553.2,1383.7,1457.2,1380z"/>
			<path d="M1300.9,1716.9c-12.7-5.2-21.7-17.7-21.7-32.3c0-8.2,2.9-15.8,7.6-21.8l-34.6-132.5c-2.1-7.9-13.3-7.9-15.4,0
				l-85.6,328.1c-1.3,5,2.5,10,7.7,10h171.2c5.2,0,9-4.9,7.7-10L1300.9,1716.9z"/>
			<path d="M1513.8,1852l-119.4-459.5c-1.5-5.8-6.7-9.8-12.7-9.8H1276c-8.6,0-14.8,8.1-12.7,16.4l65.2,253.1
				c0.1,0.3,0.2,0.6,0.3,0.9c11.8,5.6,20,17.6,20,31.6c0,7.6-2.5,14.7-6.6,20.4c0.1,0.3,0.1,0.6,0.2,0.9l39.3,152.6
				c1.5,5.8,6.7,9.8,12.7,9.8h106.6C1509.7,1868.4,1515.9,1860.3,1513.8,1852z"/>
			<ellipse cx="1314.1" cy="1684.6" rx="20.8" ry="20.8"/>
		</g>
	</g>
	
		<linearGradient id="SVGID_1_" gradientUnits="userSpaceOnUse" x1="-612.3123" y1="-917.4295" x2="187.6877" y2="-917.4295" gradientTransform="matrix(1 0 0 -1 0 800)">
		<stop  offset="0" style="stop-color:#21409A"/>
		<stop  offset="1" style="stop-color:#24285D"/>
	</linearGradient>
	<rect x="-612.3" y="1317.4" class="st4" width="800" height="800"/>
	<g class="st2">
		<g>
			<path class="st3" d="M-476.6,1952.5h-25l-6.3,15c-0.7,1.7-1.7,2.2-3,2.2c-2,0-3.1-1.5-3.1-3.1c0-0.5,0.2-0.9,0.3-1.4l21-48.8
				c0.7-1.6,2-2.7,3.8-2.7c1.9,0,3.1,1.2,3.8,2.7l21,48.5c0.2,0.5,0.2,0.9,0.2,1.3c0,1.7-1.2,3.4-3.2,3.4c-1.4,0-2.6-0.9-3.1-2.2
				L-476.6,1952.5z M-489.1,1922.7l-9.9,23.5h19.8L-489.1,1922.7z"/>
			<path class="st3" d="M-439.4,1914c15.7,0,20.3,8.5,20.3,17c0,9-6.4,17.3-19.8,17.3c-2.2,0-5.5-0.1-8.2-0.3v18.4
				c0,1.8-1.5,3.3-3.3,3.3c-1.9,0-3.4-1.5-3.4-3.3v-48.9c0-1.8,1.5-3.3,3.3-3.3C-446.9,1914.1-442,1914-439.4,1914z M-447.1,1941.6
				c2.7,0.2,5.3,0.4,8,0.4c8.1,0,13-4.2,13-11.1c0-6.5-3.9-10.7-12.6-10.7c-2.2,0-5.7,0.1-8.3,0.2V1941.6z"/>
			<path class="st3" d="M-366.7,1913.8c1.8,0,3.3,1.5,3.3,3.2v49.4c0,1.8-1.5,3.3-3.3,3.3c-1.9,0-3.4-1.5-3.4-3.3v-22.1h-30.2v22.1
				c0,1.8-1.5,3.3-3.3,3.3c-1.9,0-3.4-1.5-3.4-3.3V1917c0-1.7,1.5-3.2,3.4-3.2c1.8,0,3.3,1.5,3.3,3.2v21h30.2v-21
				C-370,1915.2-368.5,1913.8-366.7,1913.8z"/>
			<path class="st3" d="M-318.1,1962.8c1.6,0,3.1,1.4,3.1,3.1s-1.4,3.1-3.1,3.1h-25.4c-1.8,0-3.3-1.5-3.3-3.3v-48.4
				c0-1.8,1.5-3.3,3.3-3.3h24.7c1.6,0,3.1,1.4,3.1,3.1s-1.4,3.1-3.1,3.1h-21.3v17.7h18.9c1.6,0,3.1,1.4,3.1,3.1s-1.4,3.1-3.1,3.1
				h-18.9v18.4L-318.1,1962.8L-318.1,1962.8z"/>
			<path class="st3" d="M-302.7,1913.8c1.4,0,2.2,0.8,3.3,2.4l14.5,20l14.3-20c1.2-1.7,2.2-2.4,3.6-2.4c1.8,0,3.1,1.3,3.1,3
				c0,0.6-0.2,1.3-0.7,2l-16.1,22.4l17,23.6c0.4,0.5,0.5,1.1,0.5,1.7c0,1.6-1.2,3.2-3.1,3.2c-1.3,0-2.2-0.6-3.2-2l-15.6-21.4
				l-15.5,21.4c-0.9,1.2-2,2-3.3,2c-1.9,0-3.1-1.5-3.1-3.1c0-0.7,0.2-1.4,0.7-2l16.9-23.3l-15.9-22.2c-0.5-0.6-0.6-1.3-0.6-2
				C-306,1915.2-304.8,1913.8-302.7,1913.8z"/>
			<path class="st3" d="M-220,1914c15.7,0,20.3,8.5,20.3,17c0,9-6.4,17.3-19.8,17.3c-2.2,0-5.5-0.1-8.2-0.3v18.4
				c0,1.8-1.5,3.3-3.3,3.3c-1.9,0-3.4-1.5-3.4-3.3v-48.9c0-1.8,1.5-3.3,3.3-3.3C-227.4,1914.1-222.5,1914-220,1914z M-227.7,1941.6
				c2.7,0.2,5.3,0.4,8,0.4c8.1,0,13-4.2,13-11.1c0-6.5-3.9-10.7-12.6-10.7c-2.2,0-5.7,0.1-8.3,0.2
				C-227.7,1920.4-227.7,1941.6-227.7,1941.6z"/>
			<path class="st3" d="M-147.2,1913.8c1.8,0,3.3,1.5,3.3,3.2v49.4c0,1.8-1.5,3.3-3.3,3.3c-1.9,0-3.4-1.5-3.4-3.3v-22.1h-30.2v22.1
				c0,1.8-1.5,3.3-3.3,3.3c-1.9,0-3.4-1.5-3.4-3.3V1917c0-1.7,1.5-3.2,3.4-3.2c1.8,0,3.3,1.5,3.3,3.2v21h30.2v-21
				C-150.6,1915.2-149.1,1913.8-147.2,1913.8z"/>
			<path class="st3" d="M-96.4,1952.5h-25l-6.3,15c-0.7,1.7-1.7,2.2-3,2.2c-2,0-3.1-1.5-3.1-3.1c0-0.5,0.2-0.9,0.3-1.4l21-48.8
				c0.7-1.6,2-2.7,3.8-2.7s3.1,1.2,3.8,2.7l21,48.5c0.2,0.5,0.2,0.9,0.2,1.3c0,1.7-1.2,3.4-3.2,3.4c-1.4,0-2.6-0.9-3.1-2.2
				L-96.4,1952.5z M-108.9,1922.7l-9.9,23.5H-99L-108.9,1922.7z"/>
			<path class="st3" d="M-38.8,1969.7c-1.4,0-2.4-0.7-3.4-1.9l-15.8-20.7h-9v19.2c0,1.8-1.5,3.3-3.3,3.3c-1.9,0-3.4-1.5-3.4-3.3
				v-48.9c0-1.8,1.5-3.3,3.3-3.3c4.2-0.1,10.3-0.2,11.5-0.2c15,0,19.6,7.5,19.6,16.3c0,8.6-5.9,14-11.9,15.5l14.6,18.5
				c0.6,0.7,0.9,1.6,0.9,2.3C-35.8,1968.3-36.9,1969.7-38.8,1969.7z M-66.9,1940.8h8.1c6.4,0,12.5-3.9,12.5-10.4
				c0-5.7-3.1-10.1-12.9-10.1c-1.7,0-5.1,0.1-7.7,0.2L-66.9,1940.8L-66.9,1940.8z"/>
			<path class="st3" d="M6,1947.8c-1.1,1.5-2.3,2.1-3.5,2.1c-1.2,0-2.4-0.6-3.5-2.1l-16.6-22.8v41.3c0,1.8-1.5,3.3-3.3,3.3
				c-1.9,0-3.4-1.5-3.4-3.3V1918c0-2.5,1.6-4.2,3.8-4.2c2,0,3.3,1.1,4.3,2.5L3,1942.3l18.5-26.3c0.8-1.2,2-2.3,3.8-2.3
				c2.5,0,3.8,1.9,3.8,3.8v48.8c0,1.8-1.5,3.3-3.3,3.3c-1.9,0-3.4-1.5-3.4-3.3v-41.8L6,1947.8z"/>
			<path class="st3" d="M76.7,1952.5h-25l-6.3,15c-0.7,1.7-1.7,2.2-3,2.2c-2,0-3.1-1.5-3.1-3.1c0-0.5,0.2-0.9,0.3-1.4l21-48.8
				c0.7-1.6,2-2.7,3.8-2.7c1.9,0,3.1,1.2,3.8,2.7l21,48.5c0.2,0.5,0.2,0.9,0.2,1.3c0,1.7-1.2,3.4-3.2,3.4c-1.4,0-2.6-0.9-3.1-2.2
				L76.7,1952.5z M64.2,1922.7l-9.9,23.5h19.8L64.2,1922.7z"/>
		</g>
		<g>
			<path class="st3" d="M-397.1,2037.7c-0.4-0.4-0.6-0.9-0.6-1.4c0-0.4,0.1-0.9,0.4-1.2c0.4-0.5,1-0.8,1.6-0.8
				c0.4,0,0.8,0.1,1.1,0.3c2.6,1.9,4.7,3.1,7.2,3.1c3.6,0,6.9-1.9,6.9-5.4c0-8.6-17.1-5.8-17.1-17.4c0-5.1,3.9-9.2,10.5-9.2
				c3.2,0,6,0.9,8.2,2.3c0.5,0.4,0.8,0.9,0.8,1.6c0,0.3-0.1,0.8-0.4,1.1c-0.4,0.6-1,0.9-1.6,0.9c-0.4,0-0.8-0.2-1.1-0.3
				c-1.6-1-3.2-1.6-5.6-1.6c-3.9,0-6.3,2.1-6.3,5.2c0,8.7,17.1,5.4,17.1,17.4c0,5.8-5.1,9.5-11.4,9.5
				C-391.1,2041.7-394.2,2040.2-397.1,2037.7z"/>
			<path class="st3" d="M-361.2,2023.7c0-10.2,7.5-18,17.9-18c10.2,0,17.9,7.4,17.9,18c0,10.4-7.7,18-17.9,18
				C-353.5,2041.7-361.2,2034.4-361.2,2023.7z M-356.7,2023.7c0,7.9,5.9,14,13.4,14c8,0,13.4-6.1,13.4-14c0-8.2-5.9-14-13.4-14
				C-350.9,2009.7-356.7,2015.6-356.7,2023.7z"/>
			<path class="st3" d="M-288.2,2037.2c1,0,2,0.9,2,2c0,1.1-0.9,2-2,2h-17.5c-1.1,0-2.1-0.9-2.1-2.1V2008c0-1.1,0.9-2.1,2.1-2.1
				c1.1,0,2.1,0.9,2.1,2.1v29.2L-288.2,2037.2L-288.2,2037.2z"/>
			<path class="st3" d="M-256.2,2037.7c5.8,0,9.3-3.9,9.3-11.9V2008c0-1.1,0.9-2.1,2.2-2.1c1.1,0,2.1,0.9,2.1,2.1v18.6
				c0,10.7-6.4,15.1-13.6,15.1c-8.4,0-14.5-5.2-14.5-15.4V2008c0-1.1,0.9-2.1,2.1-2.1c1.1,0,2.1,0.9,2.1,2.1v17.5
				C-266.5,2033.1-262.8,2037.7-256.2,2037.7z"/>
			<path class="st3" d="M-210.9,2039.5c0,1.2-0.9,2.1-2.1,2.1c-1.2,0-2.1-0.9-2.1-2.1v-29.3h-10.3c-1,0-1.9-0.9-1.9-2
				c0-1.1,0.9-2,1.9-2h24.9c1.1,0,1.9,0.9,1.9,2c0,1.1-0.9,2-1.9,2h-10.3V2039.5z"/>
			<path class="st3" d="M-179.8,2006c1.1,0,2.1,0.9,2.1,2.1v31.5c0,1.2-0.9,2.1-2.1,2.1c-1.2,0-2.2-0.9-2.2-2.1V2008
				C-181.9,2006.9-181,2006-179.8,2006z"/>
			<path class="st3" d="M-158.9,2023.7c0-10.2,7.5-18,17.9-18c10.2,0,17.9,7.4,17.9,18c0,10.4-7.7,18-17.9,18
				S-158.9,2034.4-158.9,2023.7z M-154.4,2023.7c0,7.9,5.8,14,13.4,14c8,0,13.4-6.1,13.4-14c0-8.2-5.9-14-13.4-14
				C-148.7,2009.7-154.4,2015.6-154.4,2023.7z"/>
			<path class="st3" d="M-80.2,2007.9c0-1.1,0.9-1.9,2-1.9c1.1,0,2,0.9,2,1.9v31.5c0,1.2-0.7,2.1-1.8,2.1c-1.1,0-1.7-0.5-2.6-1.6
				l-20.9-26.4v26c0,1.1-0.9,1.9-2,1.9c-1.1,0-2-0.9-2-1.9v-31.3c0-1.2,0.6-2.3,1.9-2.3c1.1,0,1.7,0.5,2.7,1.8l20.6,26.1V2007.9z"/>
			<path class="st3" d="M-58.1,2037.7c-0.4-0.4-0.6-0.9-0.6-1.4c0-0.4,0.1-0.9,0.4-1.2c0.4-0.5,1-0.8,1.6-0.8c0.4,0,0.8,0.1,1.1,0.3
				c2.6,1.9,4.7,3.1,7.2,3.1c3.6,0,6.9-1.9,6.9-5.4c0-8.6-17.1-5.8-17.1-17.4c0-5.1,3.9-9.2,10.6-9.2c3.2,0,6,0.9,8.2,2.3
				c0.5,0.4,0.8,0.9,0.8,1.6c0,0.3-0.1,0.8-0.4,1.1c-0.4,0.6-1.1,0.9-1.6,0.9c-0.4,0-0.8-0.2-1.1-0.3c-1.6-1-3.2-1.6-5.6-1.6
				c-3.9,0-6.3,2.1-6.3,5.2c0,8.7,17.1,5.4,17.1,17.4c0,5.8-5.1,9.5-11.4,9.5C-52.1,2041.7-55.2,2040.2-58.1,2037.7z"/>
		</g>
		<g>
			<path class="st3" d="M-142.8,1382.1c-1.5-0.1-3-0.1-4.5-0.2c-8.5-0.5-15,7.5-12.9,15.7l78.5,301.7c2.1,8.1,11.3,11.8,18.5,7.7
				c50.4-28.8,85.2-82.2,87.6-144.4C28,1466.6-46.8,1385.8-142.8,1382.1z"/>
			<path class="st3" d="M-299.1,1719c-12.7-5.2-21.7-17.7-21.7-32.3c0-8.2,2.9-15.8,7.6-21.8l-34.6-132.5c-2.1-7.9-13.4-7.9-15.4,0
				l-85.6,328.1c-1.3,5,2.5,10,7.7,10h171.2c5.2,0,9-4.9,7.7-10L-299.1,1719z"/>
			<path class="st3" d="M-86.2,1854.1l-119.4-459.5c-1.5-5.8-6.7-9.8-12.7-9.8H-324c-8.6,0-14.8,8.1-12.7,16.4l65.2,253.1
				c0.1,0.3,0.2,0.6,0.3,0.9c11.8,5.6,20,17.6,20,31.6c0,7.6-2.5,14.7-6.6,20.4c0.1,0.3,0.1,0.6,0.2,0.9l39.3,152.6
				c1.5,5.8,6.7,9.8,12.7,9.8h106.6C-90.3,1870.6-84.1,1862.5-86.2,1854.1z"/>
			<ellipse class="st3" cx="-286" cy="1686.7" rx="20.8" ry="20.8"/>
		</g>
	</g>
	<g class="st2">
		<g>
			<path class="st5" d="M-1276.6,1958.1h-25l-6.3,15c-0.7,1.7-1.7,2.2-3,2.2c-2,0-3.1-1.5-3.1-3.1c0-0.5,0.2-0.9,0.3-1.4l21-48.8
				c0.7-1.6,2-2.7,3.8-2.7c1.9,0,3.1,1.2,3.8,2.7l21,48.5c0.2,0.5,0.2,0.9,0.2,1.3c0,1.7-1.2,3.4-3.2,3.4c-1.4,0-2.6-0.9-3.1-2.2
				L-1276.6,1958.1z M-1289.1,1928.3l-9.9,23.5h19.8L-1289.1,1928.3z"/>
			<path class="st5" d="M-1239.4,1919.6c15.7,0,20.3,8.5,20.3,17c0,9-6.4,17.3-19.8,17.3c-2.2,0-5.5-0.1-8.2-0.3v18.4
				c0,1.8-1.5,3.3-3.3,3.3c-1.9,0-3.4-1.5-3.4-3.3v-48.9c0-1.8,1.5-3.3,3.3-3.3C-1246.9,1919.7-1242,1919.6-1239.4,1919.6z
				 M-1247.1,1947.3c2.7,0.2,5.3,0.4,8,0.4c8.1,0,13-4.2,13-11.1c0-6.5-3.9-10.7-12.6-10.7c-2.2,0-5.7,0.1-8.3,0.2L-1247.1,1947.3
				L-1247.1,1947.3z"/>
			<path class="st5" d="M-1166.7,1919.4c1.8,0,3.3,1.5,3.3,3.2v49.4c0,1.8-1.5,3.3-3.3,3.3c-1.9,0-3.4-1.5-3.4-3.3v-22.1h-30.2v22.1
				c0,1.8-1.5,3.3-3.3,3.3c-1.9,0-3.4-1.5-3.4-3.3v-49.4c0-1.7,1.5-3.2,3.4-3.2c1.8,0,3.3,1.5,3.3,3.2v21h30.2v-21
				C-1170,1920.9-1168.5,1919.4-1166.7,1919.4z"/>
			<path class="st5" d="M-1118.1,1968.5c1.6,0,3.1,1.4,3.1,3.1s-1.4,3.1-3.1,3.1h-25.4c-1.8,0-3.3-1.5-3.3-3.3v-48.4
				c0-1.8,1.5-3.3,3.3-3.3h24.7c1.6,0,3.1,1.4,3.1,3.1s-1.4,3.1-3.1,3.1h-21.3v17.7h18.9c1.6,0,3.1,1.4,3.1,3.1s-1.4,3.1-3.1,3.1
				h-18.9v18.4L-1118.1,1968.5L-1118.1,1968.5z"/>
			<path class="st5" d="M-1102.7,1919.4c1.4,0,2.2,0.8,3.3,2.4l14.5,20l14.3-20c1.2-1.7,2.2-2.4,3.6-2.4c1.8,0,3.1,1.3,3.1,3
				c0,0.6-0.2,1.3-0.7,2l-16.1,22.4l17,23.6c0.4,0.5,0.5,1.1,0.5,1.7c0,1.6-1.2,3.2-3.1,3.2c-1.3,0-2.2-0.6-3.2-2l-15.6-21.4
				l-15.5,21.4c-0.9,1.2-2,2-3.3,2c-1.9,0-3.1-1.5-3.1-3.1c0-0.7,0.2-1.4,0.7-2l16.9-23.3l-15.9-22.2c-0.5-0.6-0.6-1.3-0.6-2
				C-1106,1920.9-1104.8,1919.4-1102.7,1919.4z"/>
			<path class="st5" d="M-1020,1919.6c15.7,0,20.3,8.5,20.3,17c0,9-6.4,17.3-19.8,17.3c-2.2,0-5.5-0.1-8.2-0.3v18.4
				c0,1.8-1.5,3.3-3.3,3.3c-1.9,0-3.4-1.5-3.4-3.3v-48.9c0-1.8,1.5-3.3,3.3-3.3C-1027.4,1919.7-1022.5,1919.6-1020,1919.6z
				 M-1027.7,1947.3c2.7,0.2,5.3,0.4,8,0.4c8.1,0,13-4.2,13-11.1c0-6.5-3.9-10.7-12.6-10.7c-2.2,0-5.7,0.1-8.3,0.2L-1027.7,1947.3
				L-1027.7,1947.3z"/>
			<path class="st5" d="M-947.2,1919.4c1.8,0,3.3,1.5,3.3,3.2v49.4c0,1.8-1.5,3.3-3.3,3.3c-1.9,0-3.4-1.5-3.4-3.3v-22.1h-30.2v22.1
				c0,1.8-1.5,3.3-3.3,3.3c-1.9,0-3.4-1.5-3.4-3.3v-49.4c0-1.7,1.5-3.2,3.4-3.2c1.8,0,3.3,1.5,3.3,3.2v21h30.2v-21
				C-950.6,1920.9-949.1,1919.4-947.2,1919.4z"/>
			<path class="st5" d="M-896.4,1958.1h-25l-6.3,15c-0.7,1.7-1.7,2.2-3,2.2c-2,0-3.1-1.5-3.1-3.1c0-0.5,0.2-0.9,0.3-1.4l21-48.8
				c0.7-1.6,2-2.7,3.8-2.7s3.1,1.2,3.8,2.7l21,48.5c0.2,0.5,0.2,0.9,0.2,1.3c0,1.7-1.2,3.4-3.2,3.4c-1.4,0-2.6-0.9-3.1-2.2
				L-896.4,1958.1z M-908.9,1928.3l-9.9,23.5h19.8L-908.9,1928.3z"/>
			<path class="st5" d="M-838.8,1975.3c-1.4,0-2.4-0.7-3.4-1.9l-15.8-20.7h-9v19.2c0,1.8-1.5,3.3-3.3,3.3c-1.9,0-3.4-1.5-3.4-3.3
				v-48.9c0-1.8,1.5-3.3,3.3-3.3c4.2-0.1,10.3-0.2,11.5-0.2c15,0,19.6,7.5,19.6,16.3c0,8.6-5.9,14-11.9,15.5l14.6,18.5
				c0.5,0.7,0.9,1.6,0.9,2.3C-835.8,1973.9-836.9,1975.3-838.8,1975.3z M-866.9,1946.5h8.1c6.4,0,12.5-3.9,12.5-10.4
				c0-5.7-3.1-10.1-12.9-10.1c-1.7,0-5.1,0.1-7.7,0.2V1946.5z"/>
			<path class="st5" d="M-794,1953.5c-1.1,1.5-2.3,2.1-3.5,2.1c-1.2,0-2.4-0.6-3.5-2.1l-16.6-22.8v41.3c0,1.8-1.5,3.3-3.3,3.3
				c-1.9,0-3.4-1.5-3.4-3.3v-48.4c0-2.5,1.6-4.2,3.8-4.2c2,0,3.3,1.1,4.3,2.5l19.2,26.1l18.5-26.3c0.8-1.2,2-2.3,3.8-2.3
				c2.5,0,3.8,1.9,3.8,3.8v48.8c0,1.8-1.5,3.3-3.3,3.3c-1.9,0-3.4-1.5-3.4-3.3v-41.8L-794,1953.5z"/>
			<path class="st5" d="M-723.3,1958.1h-25l-6.3,15c-0.7,1.7-1.7,2.2-3,2.2c-2,0-3.1-1.5-3.1-3.1c0-0.5,0.2-0.9,0.3-1.4l21-48.8
				c0.7-1.6,2-2.7,3.8-2.7c1.9,0,3.1,1.2,3.8,2.7l21,48.5c0.2,0.5,0.2,0.9,0.2,1.3c0,1.7-1.2,3.4-3.2,3.4c-1.4,0-2.6-0.9-3.1-2.2
				L-723.3,1958.1z M-735.8,1928.3l-9.9,23.5h19.8L-735.8,1928.3z"/>
		</g>
		<g>
			<path class="st6" d="M-1197.1,2043.4c-0.4-0.4-0.6-0.9-0.6-1.4c0-0.4,0.2-0.9,0.5-1.2c0.4-0.5,1-0.8,1.5-0.8
				c0.4,0,0.8,0.1,1.2,0.3c2.7,1.9,4.7,3.1,7.2,3.1c3.7,0,6.8-1.9,6.8-5.4c0-8.6-17.1-5.8-17.1-17.4c0-5.1,3.9-9.2,10.6-9.2
				c3.2,0,6,0.9,8.2,2.3c0.5,0.4,0.8,0.9,0.8,1.6c0,0.3-0.1,0.8-0.3,1.1c-0.5,0.6-1.1,0.9-1.7,0.9c-0.4,0-0.8-0.2-1.2-0.3
				c-1.7-1-3.2-1.6-5.6-1.6c-3.9,0-6.3,2.1-6.3,5.2c0,8.7,17.1,5.4,17.1,17.4c0,5.8-5,9.5-11.4,9.5
				C-1191.1,2047.4-1194.2,2045.8-1197.1,2043.4z"/>
			<path class="st6" d="M-1161.2,2029.4c0-10.2,7.5-18,17.9-18c10.2,0,17.9,7.4,17.9,18c0,10.4-7.7,18-17.9,18
				C-1153.5,2047.4-1161.2,2040-1161.2,2029.4z M-1156.7,2029.4c0,7.9,5.8,14,13.4,14c8,0,13.4-6.1,13.4-14c0-8.2-5.9-14-13.4-14
				C-1150.9,2015.4-1156.7,2021.2-1156.7,2029.4z"/>
			<path class="st6" d="M-1088.2,2042.9c1.1,0,2,0.9,2,2c0,1.1-0.9,2-2,2h-17.5c-1.2,0-2.1-0.9-2.1-2.1v-31.1c0-1.1,0.9-2.1,2.2-2.1
				c1.2,0,2.1,0.9,2.1,2.1v29.2L-1088.2,2042.9L-1088.2,2042.9z"/>
			<path class="st6" d="M-1056.2,2043.3c5.8,0,9.3-3.9,9.3-11.9v-17.8c0-1.1,1-2.1,2.2-2.1c1.2,0,2.1,0.9,2.1,2.1v18.6
				c0,10.7-6.4,15.1-13.6,15.1c-8.4,0-14.5-5.2-14.5-15.4v-18.3c0-1.1,0.9-2.1,2.2-2.1c1.2,0,2.1,0.9,2.1,2.1v17.5
				C-1066.5,2038.7-1062.8,2043.3-1056.2,2043.3z"/>
			<path class="st6" d="M-1010.9,2045.1c0,1.2-1,2.1-2.1,2.1c-1.2,0-2.2-0.9-2.2-2.1v-29.3h-10.3c-1,0-1.9-0.9-1.9-2
				c0-1.1,0.9-2,1.9-2h24.9c1,0,2,0.9,2,2c0,1.1-0.9,2-2,2h-10.3L-1010.9,2045.1L-1010.9,2045.1z"/>
			<path class="st6" d="M-979.8,2011.6c1.2,0,2.1,0.9,2.1,2.1v31.5c0,1.2-1,2.1-2.1,2.1c-1.2,0-2.1-0.9-2.1-2.1v-31.5
				C-981.9,2012.6-981,2011.6-979.8,2011.6z"/>
			<path class="st6" d="M-958.9,2029.4c0-10.2,7.5-18,17.9-18c10.2,0,17.9,7.4,17.9,18c0,10.4-7.7,18-17.9,18
				C-951.2,2047.4-958.9,2040-958.9,2029.4z M-954.4,2029.4c0,7.9,5.9,14,13.4,14c8,0,13.4-6.1,13.4-14c0-8.2-5.9-14-13.4-14
				C-948.7,2015.4-954.4,2021.2-954.4,2029.4z"/>
			<path class="st6" d="M-880.2,2013.6c0-1.1,0.9-1.9,2-1.9c1.1,0,2,0.9,2,1.9v31.5c0,1.2-0.7,2.1-1.8,2.1c-1,0-1.7-0.5-2.5-1.6
				l-20.9-26.4v26c0,1.1-0.9,1.9-2,1.9c-1.1,0-2-0.9-2-1.9V2014c0-1.2,0.6-2.3,2-2.3c1,0,1.7,0.5,2.7,1.8l20.6,26.1V2013.6z"/>
			<path class="st6" d="M-858.1,2043.4c-0.4-0.4-0.6-0.9-0.6-1.4c0-0.4,0.2-0.9,0.5-1.2c0.4-0.5,1-0.8,1.5-0.8
				c0.4,0,0.8,0.1,1.2,0.3c2.7,1.9,4.7,3.1,7.2,3.1c3.7,0,6.9-1.9,6.9-5.4c0-8.6-17.1-5.8-17.1-17.4c0-5.1,3.9-9.2,10.6-9.2
				c3.2,0,6,0.9,8.2,2.3c0.5,0.4,0.8,0.9,0.8,1.6c0,0.3-0.1,0.8-0.3,1.1c-0.5,0.6-1.1,0.9-1.7,0.9c-0.4,0-0.8-0.2-1.2-0.3
				c-1.6-1-3.2-1.6-5.6-1.6c-3.9,0-6.3,2.1-6.3,5.2c0,8.7,17.1,5.4,17.1,17.4c0,5.8-5.1,9.5-11.4,9.5
				C-852.1,2047.4-855.2,2045.8-858.1,2043.4z"/>
		</g>
		<g>
			
				<linearGradient id="SVGID_00000159432567554982868620000012389219887670048906_" gradientUnits="userSpaceOnUse" x1="-960.6271" y1="-750.9279" x2="-775.5456" y2="-750.9279" gradientTransform="matrix(1 0 0 -1 0 800)">
				<stop  offset="1.300000e-03" style="stop-color:#21409A"/>
				<stop  offset="1" style="stop-color:#24285D"/>
			</linearGradient>
			<path style="fill:url(#SVGID_00000159432567554982868620000012389219887670048906_);" d="M-942.8,1387.7c-1.5-0.1-3-0.1-4.5-0.2
				c-8.5-0.5-15,7.5-12.9,15.7l78.5,301.7c2.1,8.1,11.3,11.8,18.5,7.7c50.4-28.8,85.2-82.2,87.6-144.4
				C-772,1472.2-846.8,1391.4-942.8,1387.7z"/>
			
				<linearGradient id="SVGID_00000127757528168170610860000008082171504402712469_" gradientUnits="userSpaceOnUse" x1="-1249.0795" y1="-904.1454" x2="-1061.938" y2="-904.1454" gradientTransform="matrix(1 0 0 -1 0 800)">
				<stop  offset="1.300000e-03" style="stop-color:#21409A"/>
				<stop  offset="1" style="stop-color:#24285D"/>
			</linearGradient>
			<path style="fill:url(#SVGID_00000127757528168170610860000008082171504402712469_);" d="M-1099.1,1724.6
				c-12.7-5.2-21.7-17.7-21.7-32.3c0-8.2,2.9-15.8,7.6-21.8l-34.6-132.5c-2.1-7.9-13.3-7.9-15.4,0l-85.6,328.1c-1.3,5,2.5,10,7.7,10
				h171.2c5.2,0,9-4.9,7.7-10L-1099.1,1724.6z"/>
			
				<linearGradient id="SVGID_00000034810611748904606230000013321850391544802209_" gradientUnits="userSpaceOnUse" x1="-1137.1094" y1="-833.3009" x2="-885.7927" y2="-833.3009" gradientTransform="matrix(1 0 0 -1 0 800)">
				<stop  offset="1.300000e-03" style="stop-color:#21409A"/>
				<stop  offset="1" style="stop-color:#24285D"/>
			</linearGradient>
			<path style="fill:url(#SVGID_00000034810611748904606230000013321850391544802209_);" d="M-886.2,1859.8l-119.4-459.5
				c-1.5-5.8-6.7-9.8-12.7-9.8H-1124c-8.6,0-14.8,8.1-12.7,16.4l65.2,253.1c0.1,0.3,0.2,0.6,0.3,0.9c11.8,5.6,20,17.6,20,31.6
				c0,7.6-2.5,14.7-6.6,20.4c0.1,0.3,0.1,0.6,0.2,0.9l39.3,152.6c1.5,5.8,6.7,9.8,12.7,9.8h106.6
				C-890.3,1876.2-884.1,1868.1-886.2,1859.8z"/>
			
				<linearGradient id="SVGID_00000082344034795805740430000017053001776413425806_" gradientUnits="userSpaceOnUse" x1="-1106.8003" y1="-892.3434" x2="-1065.2063" y2="-892.3434" gradientTransform="matrix(1 0 0 -1 0 800)">
				<stop  offset="1.300000e-03" style="stop-color:#21409A"/>
				<stop  offset="1" style="stop-color:#24285D"/>
			</linearGradient>
			<circle style="fill:url(#SVGID_00000082344034795805740430000017053001776413425806_);" cx="-1086" cy="1692.3" r="20.8"/>
		</g>
	</g>
</g>
<g id="Layer_1">
	<g>
		<path class="st3" d="M409.7,1765"/>
	</g>
	<g>
		<g>
			<path class="st3" d="M135.7,640.7h-25l-6.3,15c-0.7,1.7-1.7,2.2-3,2.2c-2,0-3.1-1.5-3.1-3.1c0-0.5,0.2-0.9,0.3-1.4l21-48.8
				c0.7-1.6,2-2.7,3.8-2.7c1.9,0,3.1,1.2,3.8,2.7l21,48.5c0.2,0.5,0.2,0.9,0.2,1.3c0,1.7-1.2,3.4-3.2,3.4c-1.4,0-2.6-0.9-3.1-2.2
				L135.7,640.7z M123.2,610.9l-9.9,23.5h19.8L123.2,610.9z"/>
			<path class="st3" d="M172.9,602.2c15.7,0,20.3,8.5,20.3,17c0,9-6.4,17.3-19.8,17.3c-2.2,0-5.5-0.1-8.2-0.3v18.4
				c0,1.8-1.5,3.3-3.3,3.3c-1.9,0-3.4-1.5-3.4-3.3v-48.9c0-1.8,1.5-3.3,3.3-3.3C165.4,602.3,170.4,602.2,172.9,602.2z M165.2,629.8
				c2.7,0.2,5.3,0.4,8,0.4c8.1,0,13-4.2,13-11.1c0-6.5-3.9-10.7-12.6-10.7c-2.2,0-5.7,0.1-8.3,0.2V629.8z"/>
			<path class="st3" d="M245.7,601.9c1.8,0,3.3,1.5,3.3,3.2v49.4c0,1.8-1.5,3.3-3.3,3.3c-1.9,0-3.4-1.5-3.4-3.3v-22.1h-30.2v22.1
				c0,1.8-1.5,3.3-3.3,3.3c-1.9,0-3.4-1.5-3.4-3.3v-49.4c0-1.7,1.5-3.2,3.4-3.2c1.8,0,3.3,1.5,3.3,3.2v21h30.2v-21
				C242.3,603.4,243.8,601.9,245.7,601.9z"/>
			<path class="st3" d="M294.2,651c1.6,0,3.1,1.4,3.1,3.1s-1.4,3.1-3.1,3.1h-25.4c-1.8,0-3.3-1.5-3.3-3.3v-48.4
				c0-1.8,1.5-3.3,3.3-3.3h24.7c1.6,0,3.1,1.4,3.1,3.1s-1.4,3.1-3.1,3.1h-21.3v17.7H291c1.6,0,3.1,1.4,3.1,3.1s-1.4,3.1-3.1,3.1
				h-18.9V651L294.2,651L294.2,651z"/>
			<path class="st3" d="M309.6,601.9c1.4,0,2.2,0.8,3.3,2.4l14.5,20l14.3-20c1.2-1.7,2.2-2.4,3.6-2.4c1.8,0,3.1,1.3,3.1,3
				c0,0.6-0.2,1.3-0.7,2l-16.1,22.4l17,23.6c0.4,0.5,0.5,1.1,0.5,1.7c0,1.6-1.2,3.2-3.1,3.2c-1.3,0-2.2-0.5-3.2-2l-15.6-21.4
				l-15.5,21.4c-0.9,1.2-2,2-3.3,2c-1.9,0-3.1-1.5-3.1-3.1c0-0.7,0.2-1.4,0.7-2l16.9-23.3L307,607.1c-0.5-0.6-0.6-1.3-0.6-2
				C306.4,603.4,307.5,601.9,309.6,601.9z"/>
			<path class="st3" d="M392.3,602.2c15.7,0,20.3,8.5,20.3,17c0,9-6.4,17.3-19.8,17.3c-2.2,0-5.5-0.1-8.2-0.3v18.4
				c0,1.8-1.5,3.3-3.3,3.3c-1.9,0-3.4-1.5-3.4-3.3v-48.9c0-1.8,1.5-3.3,3.3-3.3C384.9,602.3,389.8,602.2,392.3,602.2z M384.6,629.8
				c2.7,0.2,5.3,0.4,8,0.4c8.1,0,13-4.2,13-11.1c0-6.5-3.9-10.7-12.6-10.7c-2.2,0-5.7,0.1-8.3,0.2V629.8z"/>
			<path class="st3" d="M465.1,601.9c1.8,0,3.3,1.5,3.3,3.2v49.4c0,1.8-1.5,3.3-3.3,3.3c-1.9,0-3.4-1.5-3.4-3.3v-22.1h-30.2v22.1
				c0,1.8-1.5,3.3-3.3,3.3c-1.9,0-3.4-1.5-3.4-3.3v-49.4c0-1.7,1.5-3.2,3.4-3.2c1.8,0,3.3,1.5,3.3,3.2v21h30.2v-21
				C461.8,603.4,463.2,601.9,465.1,601.9z"/>
			<path class="st3" d="M515.9,640.7h-25l-6.3,15c-0.7,1.7-1.7,2.2-3,2.2c-2,0-3.1-1.5-3.1-3.1c0-0.5,0.2-0.9,0.3-1.4l21-48.8
				c0.7-1.6,2-2.7,3.8-2.7s3.1,1.2,3.8,2.7l21,48.5c0.2,0.5,0.2,0.9,0.2,1.3c0,1.7-1.2,3.4-3.2,3.4c-1.4,0-2.6-0.9-3.1-2.2
				L515.9,640.7z M503.5,610.9l-9.9,23.5h19.8L503.5,610.9z"/>
			<path class="st3" d="M573.5,657.9c-1.4,0-2.4-0.7-3.4-1.9l-15.8-20.7h-9v19.2c0,1.8-1.5,3.3-3.3,3.3c-1.9,0-3.4-1.5-3.4-3.3
				v-48.9c0-1.8,1.5-3.3,3.3-3.3c4.2-0.1,10.3-0.2,11.5-0.2c15,0,19.6,7.5,19.6,16.3c0,8.6-5.9,14-11.9,15.5l14.6,18.5
				c0.5,0.7,0.9,1.6,0.9,2.3C576.6,656.4,575.4,657.9,573.5,657.9z M545.4,629h8.1c6.4,0,12.5-3.9,12.5-10.4
				c0-5.7-3.1-10.1-12.9-10.1c-1.7,0-5.1,0.1-7.7,0.2V629z"/>
			<path class="st3" d="M618.3,636c-1.1,1.5-2.3,2.1-3.5,2.1c-1.2,0-2.4-0.6-3.5-2.1l-16.6-22.8v41.3c0,1.8-1.5,3.3-3.3,3.3
				c-1.9,0-3.4-1.5-3.4-3.3v-48.4c0-2.5,1.6-4.2,3.8-4.2c2,0,3.3,1.1,4.3,2.5l19.2,26.1l18.5-26.3c0.8-1.2,2-2.3,3.8-2.3
				c2.5,0,3.8,1.9,3.8,3.8v48.8c0,1.8-1.5,3.3-3.3,3.3c-1.9,0-3.4-1.5-3.4-3.3v-41.8L618.3,636z"/>
			<path class="st3" d="M689,640.7h-25l-6.3,15c-0.7,1.7-1.7,2.2-3,2.2c-2,0-3.1-1.5-3.1-3.1c0-0.5,0.2-0.9,0.3-1.4l21-48.8
				c0.7-1.6,2-2.7,3.8-2.7c1.9,0,3.1,1.2,3.8,2.7l21,48.5c0.2,0.5,0.2,0.9,0.2,1.3c0,1.7-1.2,3.4-3.2,3.4c-1.4,0-2.6-0.9-3.1-2.2
				L689,640.7z M676.5,610.9l-9.9,23.5h19.8L676.5,610.9z"/>
		</g>
		<g>
			<path class="st3" d="M215.3,725.9c-0.4-0.4-0.6-0.9-0.6-1.4c0-0.5,0.1-0.9,0.4-1.2c0.4-0.5,1-0.8,1.6-0.8c0.4,0,0.8,0.1,1.1,0.3
				c2.6,2,4.7,3.1,7.2,3.1c3.6,0,6.9-1.9,6.9-5.5c0-8.6-17.1-5.8-17.1-17.4c0-5.1,3.9-9.2,10.6-9.2c3.2,0,6,1,8.2,2.3
				c0.5,0.4,0.8,1,0.8,1.6c0,0.3-0.1,0.8-0.4,1c-0.4,0.6-1.1,1-1.6,1c-0.4,0-0.8-0.2-1.1-0.3c-1.6-1-3.2-1.6-5.6-1.6
				c-3.9,0-6.3,2-6.3,5.2c0,8.7,17.1,5.4,17.1,17.4c0,5.8-5.1,9.5-11.4,9.5C221.3,729.9,218.2,728.4,215.3,725.9z"/>
			<path class="st3" d="M251.2,711.9c0-10.2,7.5-18,17.9-18c10.2,0,17.9,7.4,17.9,18c0,10.4-7.7,18-17.9,18
				C258.9,729.9,251.2,722.6,251.2,711.9z M255.7,711.9c0,8,5.8,14,13.4,14c8,0,13.4-6.1,13.4-14c0-8.2-5.9-14-13.4-14
				C261.4,697.9,255.7,703.8,255.7,711.9z"/>
			<path class="st3" d="M324.2,725.4c1,0,2,0.9,2,2c0,1.1-0.9,2-2,2h-17.5c-1.1,0-2.1-1-2.1-2.1v-31.1c0-1.1,1-2,2.1-2
				c1.1,0,2.1,1,2.1,2v29.2L324.2,725.4L324.2,725.4z"/>
			<path class="st3" d="M356.1,725.9c5.8,0,9.3-4,9.3-11.9v-17.8c0-1.1,1-2,2.1-2c1.1,0,2.1,1,2.1,2v18.6c0,10.7-6.4,15.1-13.6,15.1
				c-8.4,0-14.5-5.2-14.5-15.4v-18.3c0-1.1,1-2,2.1-2c1.1,0,2.1,1,2.1,2v17.5C345.9,721.3,349.6,725.9,356.1,725.9z"/>
			<path class="st3" d="M401.4,727.7c0,1.2-1,2.1-2.1,2.1c-1.2,0-2.1-0.9-2.1-2.1v-29.3h-10.3c-1,0-2-0.9-2-2c0-1.1,0.9-2,2-2h24.9
				c1,0,2,0.9,2,2c0,1.1-0.9,2-2,2h-10.3V727.7z"/>
			<path class="st3" d="M432.5,694.2c1.1,0,2.1,1,2.1,2v31.5c0,1.2-1,2.1-2.1,2.1c-1.2,0-2.1-0.9-2.1-2.1v-31.5
				C430.4,695.1,431.4,694.2,432.5,694.2z"/>
			<path class="st3" d="M453.4,711.9c0-10.2,7.5-18,17.9-18c10.2,0,17.9,7.4,17.9,18c0,10.4-7.7,18-17.9,18
				C461.1,729.9,453.4,722.6,453.4,711.9z M457.9,711.9c0,8,5.9,14,13.4,14c8,0,13.4-6.1,13.4-14c0-8.2-5.9-14-13.4-14
				C463.6,697.9,457.9,703.8,457.9,711.9z"/>
			<path class="st3" d="M532.1,696.1c0-1.1,0.9-2,2-2c1.1,0,2,0.9,2,2v31.5c0,1.2-0.7,2.1-1.8,2.1c-1,0-1.7-0.5-2.5-1.5l-20.9-26.4
				v26c0,1.1-0.9,2-2,2c-1.1,0-2-0.9-2-2v-31.3c0-1.2,0.6-2.3,2-2.3c1,0,1.7,0.5,2.7,1.8l20.6,26.1V696.1z"/>
			<path class="st3" d="M554.2,725.9c-0.4-0.4-0.6-0.9-0.6-1.4c0-0.5,0.2-0.9,0.5-1.2c0.4-0.5,1-0.8,1.5-0.8c0.4,0,0.8,0.1,1.2,0.3
				c2.7,2,4.7,3.1,7.2,3.1c3.7,0,6.9-1.9,6.9-5.5c0-8.6-17.1-5.8-17.1-17.4c0-5.1,3.9-9.2,10.6-9.2c3.2,0,6,1,8.2,2.3
				c0.5,0.4,0.8,1,0.8,1.6c0,0.3-0.1,0.8-0.3,1c-0.5,0.6-1.1,1-1.7,1c-0.4,0-0.8-0.2-1.2-0.3c-1.6-1-3.2-1.6-5.6-1.6
				c-3.9,0-6.3,2-6.3,5.2c0,8.7,17.1,5.4,17.1,17.4c0,5.8-5.1,9.5-11.4,9.5C560.2,729.9,557.2,728.4,554.2,725.9z"/>
		</g>
		<g>
			<path class="st3" d="M469.5,70.3c-1.5-0.1-3-0.1-4.5-0.2c-8.5-0.5-15,7.5-12.9,15.7l78.5,301.7c2.1,8.1,11.3,11.8,18.5,7.7
				c50.4-28.8,85.2-82.2,87.6-144.4C640.3,154.8,565.5,74,469.5,70.3z"/>
			<path class="st3" d="M313.2,407.2c-12.7-5.2-21.7-17.7-21.7-32.3c0-8.2,2.9-15.8,7.6-21.8l-34.6-132.5c-2.1-7.9-13.4-7.9-15.4,0
				l-85.6,328.1c-1.3,5,2.5,10,7.7,10h171.2c5.2,0,9-4.9,7.7-10L313.2,407.2z"/>
			<path class="st3" d="M526.1,542.3L406.7,82.8C405.2,77,399.9,73,394,73H288.3c-8.6,0-14.8,8.1-12.7,16.4l65.2,253.1
				c0.1,0.3,0.2,0.6,0.3,0.9c11.8,5.6,20,17.6,20,31.6c0,7.6-2.5,14.7-6.6,20.4c0.1,0.3,0.1,0.6,0.2,0.9l39.3,152.6
				c1.5,5.8,6.7,9.8,12.7,9.8h106.6C522,558.8,528.2,550.6,526.1,542.3z"/>
			<ellipse class="st3" cx="326.3" cy="374.9" rx="20.8" ry="20.8"/>
		</g>
	</g>
</g>
</svg>
