<?xml version="1.0" encoding="UTF-8"?>
<svg xmlns="http://www.w3.org/2000/svg" version="1.1" viewBox="0 0 400 400">
  <defs>
    <style>
      .cls-1 {
        isolation: isolate;
      }

      .cls-2 {
        stroke: #010101;
      }

      .cls-2, .cls-3, .cls-4 {
        fill: #fff;
      }

      .cls-2, .cls-4 {
        stroke-miterlimit: 10;
        stroke-width: 16px;
      }

      .cls-4 {
        stroke: #fff;
      }

      .cls-5 {
        mix-blend-mode: screen;
        opacity: .8;
      }
    </style>
  </defs>
  <!-- Generator: Adobe Illustrator 28.6.0, SVG Export Plug-In . SVG Version: 1.2.0 Build 709)  -->
  <g class="cls-1">
    <g id="Layer_1">
      <g>
        <polygon class="cls-3" points="192.7 277.1 152.8 277.1 123.9 227.9 80.7 253.6 77.6 248.5 126 219.6 156.2 271.1 192.7 271.1 192.7 277.1"/>
        <rect class="cls-3" x="123.6" y="227.9" width="6" height="71.6" transform="translate(-118.7 104.3) rotate(-31.3)"/>
        <rect class="cls-3" x="97.5" y="302.1" width="51.5" height="6" transform="translate(-138.9 106.1) rotate(-30.8)"/>
        <path class="cls-3" d="M67.5,273c-8.6,0-15.6-7-15.6-15.6s7-15.6,15.6-15.6,15.6,7,15.6,15.6-7,15.6-15.6,15.6ZM67.5,247.9c-5.3,0-9.6,4.3-9.6,9.6s4.3,9.6,9.6,9.6,9.6-4.3,9.6-9.6-4.3-9.6-9.6-9.6Z"/>
        <path class="cls-3" d="M90.4,341.3c-8.6,0-15.6-7-15.6-15.6s7-15.6,15.6-15.6,15.6,7,15.6,15.6-7,15.6-15.6,15.6ZM90.4,316.1c-5.3,0-9.6,4.3-9.6,9.6s4.3,9.6,9.6,9.6,9.6-4.3,9.6-9.6-4.3-9.6-9.6-9.6Z"/>
        <polygon class="cls-3" points="195.7 337.4 189.7 337.4 189.7 296.1 142.9 296 142.9 290.1 195.7 290.1 195.7 337.4"/>
        <path class="cls-3" d="M191.6,366.8c-8.6,0-15.6-7-15.6-15.6s7-15.6,15.6-15.6,15.6,7,15.6,15.6-7,15.6-15.6,15.6ZM191.6,341.6c-5.3,0-9.6,4.3-9.6,9.6s4.3,9.6,9.6,9.6,9.6-4.3,9.6-9.6-4.3-9.6-9.6-9.6Z"/>
        <rect class="cls-3" x="295.8" y="218" width="6" height="93" transform="translate(-67.6 422.7) rotate(-64.9)"/>
        <path class="cls-3" d="M353.5,305.1c-8.6,0-15.6-7-15.6-15.6s7-15.6,15.6-15.6,15.6,7,15.6,15.6-7,15.6-15.6,15.6ZM353.5,280c-5.3,0-9.6,4.3-9.6,9.6s4.3,9.6,9.6,9.6,9.6-4.3,9.6-9.6-4.3-9.6-9.6-9.6Z"/>
        <polygon class="cls-3" points="271.4 329.6 246 314.2 280.8 254 286 257 254.1 312.2 274.5 324.5 271.4 329.6"/>
        <path class="cls-3" d="M285,350.2c-8.6,0-15.6-7-15.6-15.6s7-15.6,15.6-15.6,15.6,7,15.6,15.6-7,15.6-15.6,15.6ZM285,325c-5.3,0-9.6,4.3-9.6,9.6s4.3,9.6,9.6,9.6,9.6-4.3,9.6-9.6-4.3-9.6-9.6-9.6Z"/>
        <g>
          <g class="cls-5">
            <path class="cls-2" d="M261.4,178.2"/>
          </g>
          <path class="cls-4" d="M258.8,175.6"/>
        </g>
        <g>
          <g class="cls-5">
            <path class="cls-2" d="M264.4,232.8"/>
          </g>
          <path class="cls-4" d="M261.8,230.2"/>
        </g>
        <g>
          <g class="cls-5">
            <path class="cls-2" d="M278.9,208.6"/>
          </g>
          <path class="cls-4" d="M276.3,206"/>
        </g>
        <g>
          <g class="cls-5">
            <path class="cls-2" d="M123.9,120"/>
          </g>
          <path class="cls-4" d="M121.3,117.4"/>
        </g>
        <path class="cls-3" d="M353.3,167.2c-8.6,0-15.6-7-15.6-15.6s7-15.6,15.6-15.6,15.6,7,15.6,15.6-7,15.6-15.6,15.6ZM353.3,142.1c-5.3,0-9.6,4.3-9.6,9.6s4.3,9.6,9.6,9.6,9.6-4.3,9.6-9.6-4.3-9.6-9.6-9.6Z"/>
        <rect class="cls-3" x="267.6" y="174" width="79.4" height="6" transform="translate(-47.3 171.2) rotate(-29)"/>
        <rect class="cls-3" x="302.4" y="179.7" width="6" height="28.3" transform="translate(-56 177.6) rotate(-29.8)"/>
        <path class="cls-3" d="M361.4,243c-8.6,0-15.6-7-15.6-15.6s7-15.6,15.6-15.6,15.6,7,15.6,15.6-7,15.6-15.6,15.6ZM361.4,217.9c-5.3,0-9.6,4.3-9.6,9.6s4.3,9.6,9.6,9.6,9.6-4.3,9.6-9.6-4.3-9.6-9.6-9.6Z"/>
        <polygon class="cls-3" points="285.7 189.1 247.2 122.6 262.2 113 255.3 101.4 132.9 101.2 133 95.2 258.8 95.4 270.2 114.9 255.3 124.6 290.8 186.1 285.7 189.1"/>
        <rect class="cls-3" x="247.1" y="102.4" width="70" height="6" transform="translate(-14.1 159.5) rotate(-30.8)"/>
        <polygon class="cls-3" points="200.2 101.4 170.6 101.4 170.6 95.4 194.2 95.4 194.1 61.4 200.1 61.4 200.2 101.4"/>
        <path class="cls-3" d="M197.2,64.4c-8.6,0-15.6-7-15.6-15.6s7-15.6,15.6-15.6,15.6,7,15.6,15.6-7,15.6-15.6,15.6ZM197.2,39.2c-5.3,0-9.6,4.3-9.6,9.6s4.3,9.6,9.6,9.6,9.6-4.3,9.6-9.6-4.3-9.6-9.6-9.6Z"/>
        <rect class="cls-3" x="133.5" y="68.2" width="6" height="72.4" transform="translate(-33.9 82.4) rotate(-30)"/>
        <path class="cls-3" d="M111.6,78.1c-8.6,0-15.6-7-15.6-15.6s7-15.6,15.6-15.6,15.6,7,15.6,15.6-7,15.6-15.6,15.6ZM111.6,52.9c-5.3,0-9.6,4.3-9.6,9.6s4.3,9.6,9.6,9.6,9.6-4.3,9.6-9.6-4.3-9.6-9.6-9.6Z"/>
        <polygon class="cls-3" points="118.7 162.2 58.1 125.6 61.2 120.5 116.6 154 140.5 114.3 145.7 117.4 118.7 162.2"/>
        <path class="cls-3" d="M48,130.7c-8.6,0-15.6-7-15.6-15.6s7-15.6,15.6-15.6,15.6,7,15.6,15.6-7,15.6-15.6,15.6ZM48,105.6c-5.3,0-9.6,4.3-9.6,9.6s4.3,9.6,9.6,9.6,9.6-4.3,9.6-9.6-4.3-9.6-9.6-9.6Z"/>
        <rect class="cls-3" x="327.7" y="192.6" width="6" height="42.3" transform="translate(.4 428.2) rotate(-65.9)"/>
        <rect class="cls-3" x="80.5" y="165.6" width="6" height="65.9" transform="translate(-130.2 224.9) rotate(-74.2)"/>
        <path class="cls-3" d="M38.6,202.6c-8.6,0-15.6-7-15.6-15.6s7-15.6,15.6-15.6,15.6,7,15.6,15.6-7,15.6-15.6,15.6ZM38.6,177.5c-5.3,0-9.6,4.3-9.6,9.6s4.3,9.6,9.6,9.6,9.6-4.3,9.6-9.6-4.3-9.6-9.6-9.6Z"/>
        <g>
          <path class="cls-3" d="M156,194.5c-1.8,0-3,.2-3.7.4v11.6c.8.2,1.7.2,3,.2,4.7,0,7.7-2.4,7.7-6.4s-2.5-5.8-7-5.8Z"/>
          <path class="cls-3" d="M190.5,194.6c-2,0-3.3.2-4,.4v25.8c.8.2,2,.2,3.1.2,8.1,0,13.3-4.4,13.3-13.8,0-8.2-4.7-12.5-12.4-12.5Z"/>
        </g>
        <path class="cls-3" d="M323.6,95.8c-8.6,0-15.6-7-15.6-15.6s7-15.6,15.6-15.6,15.6,7,15.6,15.6-7,15.6-15.6,15.6ZM323.6,70.6c-5.3,0-9.6,4.3-9.6,9.6s4.3,9.6,9.6,9.6,9.6-4.3,9.6-9.6-4.3-9.6-9.6-9.6Z"/>
        <g>
          <path class="cls-3" d="M186.5,241.7c-.8,0-1.4.4-1.8,1.3s-.6,2.4-.6,4.7.2,3.9.6,4.7c.4.8,1,1.3,1.8,1.3s1-.2,1.3-.5.7-.9.8-1.7c.2-.8.3-2,.3-3.6,0-2.4-.2-4-.6-4.9-.4-.8-1-1.2-1.8-1.2Z"/>
          <path class="cls-3" d="M237.7,134.8h-84.2l-42.1,72.9,42.1,72.9h84.2l42.1-72.9-42.1-72.9ZM238,187.4c4.6,0,8.1.9,9.7,1.8l-1.8,7.1c-1.8-.8-4.3-1.5-7.5-1.5-7.1,0-12.6,4.3-12.6,13.1s4.7,12.9,12.6,12.9,5.7-.6,7.4-1.3l1.3,7c-1.6.8-5.3,1.7-10.1,1.7-13.6,0-20.7-8.5-20.7-19.7s9.6-21,21.5-21ZM160.5,139.9h70.2c.6,0,1.2.7,1.2,1.6s-.5,1.6-1.2,1.6h-70.2c-.6,0-1.2-.7-1.2-1.6s.5-1.6,1.2-1.6ZM152.4,213.4v14.1h-8.8v-38.9c2.8-.5,6.6-.8,12.1-.8s9.4,1.1,12.1,3.2c2.5,2,4.2,5.3,4.2,9.1s-1.3,7.1-3.6,9.4c-3,2.9-7.6,4.2-12.8,4.2s-2.2,0-3-.2ZM205.9,222.8c-4.2,3.5-10.5,5.1-18.2,5.1s-7.9-.3-10.1-.6v-38.7c3.3-.5,7.6-.8,12.1-.8,7.5,0,12.3,1.3,16.2,4.2,4.1,3,6.7,7.9,6.7,14.9s-2.8,12.8-6.6,16ZM237.4,270.9c-.3.5-1.3.5-2.2,0-.9-.5-1.4-1.4-1.1-1.9l33.5-58c.3-.5,1.3-.5,2.2,0,.9.5,1.4,1.4,1.1,1.9l-33.5,58Z"/>
        </g>
      </g>
    </g>
  </g>
</svg>