<?xml version="1.0" encoding="UTF-8"?>
<svg xmlns="http://www.w3.org/2000/svg" xmlns:xlink="http://www.w3.org/1999/xlink" version="1.1" viewBox="0 0 800 800">
  <defs>
    <style>
      .cls-1 {
        fill: #1f4497;
      }

      .cls-2 {
        fill: url(#linear-gradient-5);
      }

      .cls-3 {
        fill: url(#linear-gradient-4);
      }

      .cls-4 {
        fill: url(#linear-gradient-3);
      }

      .cls-5 {
        fill: url(#linear-gradient-2);
      }

      .cls-6 {
        fill: url(#linear-gradient);
      }

      .cls-7 {
        fill: #fff;
      }

      .cls-8 {
        fill: #1f4696;
      }

      .cls-9 {
        display: none;
      }
    </style>
    <linearGradient id="linear-gradient" x1="-612.3" y1="1997.4" x2="187.7" y2="1997.4" gradientTransform="translate(0 -280)" gradientUnits="userSpaceOnUse">
      <stop offset="0" stop-color="#21409a"/>
      <stop offset="1" stop-color="#24285d"/>
    </linearGradient>
    <linearGradient id="linear-gradient-2" x1="-960.6" y1="1830.9" x2="-775.5" y2="1830.9" gradientTransform="translate(0 -280)" gradientUnits="userSpaceOnUse">
      <stop offset="0" stop-color="#21409a"/>
      <stop offset="1" stop-color="#24285d"/>
    </linearGradient>
    <linearGradient id="linear-gradient-3" x1="-1249.1" y1="1984.1" x2="-1061.9" y2="1984.1" gradientTransform="translate(0 -280)" gradientUnits="userSpaceOnUse">
      <stop offset="0" stop-color="#21409a"/>
      <stop offset="1" stop-color="#24285d"/>
    </linearGradient>
    <linearGradient id="linear-gradient-4" x1="-1137.1" y1="1913.4" x2="-885.8" y2="1913.4" gradientTransform="translate(0 -280)" gradientUnits="userSpaceOnUse">
      <stop offset="0" stop-color="#21409a"/>
      <stop offset="1" stop-color="#24285d"/>
    </linearGradient>
    <linearGradient id="linear-gradient-5" x1="-1106.8" y1="1972.3" x2="-1065.2" y2="1972.3" gradientTransform="translate(0 -280)" gradientUnits="userSpaceOnUse">
      <stop offset="0" stop-color="#21409a"/>
      <stop offset="1" stop-color="#24285d"/>
    </linearGradient>
  </defs>
  <!-- Generator: Adobe Illustrator 28.6.0, SVG Export Plug-In . SVG Version: 1.2.0 Build 709)  -->
  <g>
    <g id="Layer_1">
      <g id="All_Logos" class="cls-9">
        <rect class="cls-7" x="-1412.3" y="1317.4" width="800" height="800"/>
        <rect class="cls-7" x="987.7" y="1317.4" width="800" height="800"/>
        <rect x="187.7" y="1317.4" width="800" height="800"/>
        <g>
          <g>
            <path class="cls-7" d="M323.4,1950.3h-25l-6.3,15c-.7,1.7-1.7,2.2-3,2.2-2,0-3.1-1.5-3.1-3.1s.2-.9.3-1.4l21-48.8c.7-1.6,2-2.7,3.8-2.7s3.1,1.2,3.8,2.7l21,48.5c.2.5.2.9.2,1.3,0,1.7-1.2,3.4-3.2,3.4s-2.6-.9-3.1-2.2l-6.4-14.9ZM310.9,1920.6l-9.9,23.5h19.8l-9.9-23.5Z"/>
            <path class="cls-7" d="M360.6,1911.9c15.7,0,20.3,8.5,20.3,17s-6.4,17.3-19.8,17.3-5.5,0-8.2-.3v18.4c0,1.8-1.5,3.3-3.3,3.3s-3.4-1.5-3.4-3.3v-48.9c0-1.8,1.5-3.3,3.3-3.3,3.6-.2,8.5-.2,11.1-.2ZM352.9,1939.5c2.7.2,5.3.4,8,.4,8.1,0,13-4.2,13-11.1s-3.9-10.7-12.6-10.7-5.7,0-8.3.2v21.2h-.1Z"/>
            <path class="cls-7" d="M433.3,1911.6c1.8,0,3.3,1.5,3.3,3.2v49.4c0,1.8-1.5,3.3-3.3,3.3s-3.4-1.5-3.4-3.3v-22.1h-30.2v22.1c0,1.8-1.5,3.3-3.3,3.3s-3.4-1.5-3.4-3.3v-49.4c0-1.7,1.5-3.2,3.4-3.2s3.3,1.5,3.3,3.2v21h30.3v-21c0-1.7,1.5-3.2,3.3-3.2Z"/>
            <path class="cls-7" d="M481.9,1960.7c1.6,0,3.1,1.4,3.1,3.1s-1.4,3.1-3.1,3.1h-25.4c-1.8,0-3.3-1.5-3.3-3.3v-48.4c0-1.8,1.5-3.3,3.3-3.3h24.7c1.6,0,3.1,1.4,3.1,3.1s-1.4,3.1-3.1,3.1h-21.3v17.7h18.9c1.6,0,3.1,1.4,3.1,3.1s-1.4,3.1-3.1,3.1h-18.9v18.4l22,.3h0Z"/>
            <path class="cls-7" d="M497.3,1911.6c1.4,0,2.2.8,3.3,2.4l14.5,20,14.3-20c1.2-1.7,2.2-2.4,3.6-2.4s3.1,1.3,3.1,3-.2,1.3-.7,2l-16.1,22.4,17,23.6c.4.5.5,1.1.5,1.7,0,1.6-1.2,3.2-3.1,3.2s-2.2-.6-3.2-2l-15.6-21.4-15.5,21.4c-.9,1.2-2,2-3.3,2-1.9,0-3.1-1.5-3.1-3.1s.2-1.4.7-2l16.9-23.3-15.9-22.2c-.5-.6-.6-1.3-.6-2,0-1.8,1.1-3.3,3.2-3.3Z"/>
            <path class="cls-7" d="M580,1911.9c15.7,0,20.3,8.5,20.3,17s-6.4,17.3-19.8,17.3-5.5,0-8.2-.3v18.4c0,1.8-1.5,3.3-3.3,3.3s-3.4-1.5-3.4-3.3v-48.9c0-1.8,1.5-3.3,3.3-3.3,3.7-.2,8.6-.2,11.1-.2ZM572.3,1939.5c2.7.2,5.3.4,8,.4,8.1,0,13-4.2,13-11.1s-3.9-10.7-12.6-10.7-5.7,0-8.3.2v21.2h-.1Z"/>
            <path class="cls-7" d="M652.8,1911.6c1.8,0,3.3,1.5,3.3,3.2v49.4c0,1.8-1.5,3.3-3.3,3.3s-3.4-1.5-3.4-3.3v-22.1h-30.2v22.1c0,1.8-1.5,3.3-3.3,3.3s-3.4-1.5-3.4-3.3v-49.4c0-1.7,1.5-3.2,3.4-3.2s3.3,1.5,3.3,3.2v21h30.2v-21c0-1.7,1.5-3.2,3.4-3.2Z"/>
            <path class="cls-7" d="M703.6,1950.3h-25l-6.3,15c-.7,1.7-1.7,2.2-3,2.2-2,0-3.1-1.5-3.1-3.1s.2-.9.3-1.4l21-48.8c.7-1.6,2-2.7,3.8-2.7s3.1,1.2,3.8,2.7l21,48.5c.2.5.2.9.2,1.3,0,1.7-1.2,3.4-3.2,3.4s-2.6-.9-3.1-2.2l-6.4-14.9ZM691.1,1920.6l-9.9,23.5h19.8l-9.9-23.5Z"/>
            <path class="cls-7" d="M761.2,1967.5c-1.4,0-2.4-.7-3.4-1.9l-15.8-20.6h-9v19.2c0,1.8-1.5,3.3-3.3,3.3s-3.4-1.5-3.4-3.3v-48.9c0-1.8,1.5-3.3,3.3-3.3,4.2,0,10.3-.2,11.5-.2,15,0,19.6,7.5,19.6,16.3s-5.9,14-11.9,15.5l14.6,18.5c.5.7.9,1.6.9,2.3,0,1.7-1.2,3.1-3.1,3.1ZM733.1,1938.7h8.1c6.4,0,12.5-3.9,12.5-10.4s-3.1-10.1-12.9-10.1-5.1,0-7.7.2v20.3h0Z"/>
            <path class="cls-7" d="M806,1945.7c-1.1,1.5-2.3,2.1-3.5,2.1s-2.4-.6-3.5-2.1l-16.6-22.8v41.3c0,1.8-1.5,3.3-3.3,3.3s-3.4-1.5-3.4-3.3v-48.4c0-2.5,1.6-4.2,3.8-4.2s3.3,1.1,4.3,2.5l19.2,26.1,18.5-26.3c.8-1.2,2-2.3,3.8-2.3s3.8,1.9,3.8,3.8v48.8c0,1.8-1.5,3.3-3.3,3.3s-3.4-1.5-3.4-3.3v-41.8l-16.4,23.3Z"/>
            <path class="cls-7" d="M876.7,1950.3h-25l-6.3,15c-.7,1.7-1.7,2.2-3,2.2-2,0-3.1-1.5-3.1-3.1s.2-.9.3-1.4l21-48.8c.7-1.6,2-2.7,3.8-2.7s3.1,1.2,3.8,2.7l21,48.5c.2.5.2.9.2,1.3,0,1.7-1.2,3.4-3.2,3.4s-2.6-.9-3.1-2.2l-6.4-14.9ZM864.2,1920.6l-9.9,23.5h19.8l-9.9-23.5Z"/>
          </g>
          <g>
            <path class="cls-7" d="M402.9,2035.6c-.4-.4-.6-.9-.6-1.4s.1-.9.4-1.2c.4-.5,1-.8,1.6-.8s.8,0,1.1.3c2.7,1.9,4.7,3.1,7.2,3.1,3.6,0,6.8-1.9,6.8-5.4,0-8.6-17.1-5.8-17.1-17.4s3.9-9.2,10.6-9.2,6,.9,8.2,2.3c.5.4.8.9.8,1.6s-.1.8-.3,1.1c-.5.6-1,.9-1.7.9s-.8-.2-1.1-.3c-1.7-1-3.3-1.6-5.6-1.6-3.9,0-6.3,2.1-6.3,5.2,0,8.7,17.1,5.4,17.1,17.4s-5.1,9.5-11.4,9.5c-3.7,0-6.8-1.6-9.7-4.1Z"/>
            <path class="cls-7" d="M438.8,2021.6c0-10.2,7.5-18,17.9-18s17.9,7.4,17.9,18-7.7,18-17.9,18-17.9-7.3-17.9-18ZM443.3,2021.6c0,7.9,5.9,14,13.4,14s13.4-6.1,13.4-14-5.9-14-13.4-14-13.4,5.9-13.4,14Z"/>
            <path class="cls-7" d="M511.8,2035.1c1,0,2,.9,2,2s-.9,2-2,2h-17.5c-1.2,0-2.1-.9-2.1-2.1v-31.1c0-1.1.9-2.1,2.1-2.1s2.1.9,2.1,2.1v29.2h15.4Z"/>
            <path class="cls-7" d="M543.8,2035.6c5.8,0,9.3-3.9,9.3-11.9v-17.8c0-1.1,1-2.1,2.1-2.1s2.1.9,2.1,2.1v18.6c0,10.7-6.4,15.1-13.6,15.1s-14.5-5.2-14.5-15.4v-18.3c0-1.1,1-2.1,2.2-2.1s2.1.9,2.1,2.1v17.5c0,7.6,3.7,12.2,10.3,12.2Z"/>
            <path class="cls-7" d="M589.1,2037.4c0,1.2-1,2.1-2.1,2.1s-2.2-.9-2.2-2.1v-29.3h-10.3c-1,0-2-.9-2-2s.9-2,2-2h24.9c1,0,2,.9,2,2s-.9,2-2,2h-10.3v29.3h0Z"/>
            <path class="cls-7" d="M620.2,2003.9c1.2,0,2.1.9,2.1,2.1v31.5c0,1.2-.9,2.1-2.1,2.1s-2.2-.9-2.2-2.1v-31.5c0-1.2,1-2.1,2.2-2.1Z"/>
            <path class="cls-7" d="M641.1,2021.6c0-10.2,7.5-18,17.9-18s17.9,7.4,17.9,18-7.7,18-17.9,18-17.9-7.3-17.9-18ZM645.6,2021.6c0,7.9,5.8,14,13.4,14s13.4-6.1,13.4-14-5.9-14-13.4-14-13.4,5.9-13.4,14Z"/>
            <path class="cls-7" d="M719.8,2005.8c0-1.1.9-1.9,2-1.9s2,.9,2,1.9v31.5c0,1.2-.7,2.1-1.8,2.1s-1.7-.5-2.5-1.6l-20.9-26.4v26c0,1.1-.9,1.9-2,1.9s-2-.9-2-1.9v-31.3c0-1.2.6-2.3,2-2.3s1.7.5,2.7,1.8l20.6,26.1v-25.9h0Z"/>
            <path class="cls-7" d="M741.9,2035.6c-.4-.4-.6-.9-.6-1.4s.2-.9.5-1.2c.4-.5,1-.8,1.5-.8s.8,0,1.2.3c2.7,1.9,4.7,3.1,7.2,3.1,3.7,0,6.9-1.9,6.9-5.4,0-8.6-17.1-5.8-17.1-17.4s3.9-9.2,10.6-9.2,6,.9,8.2,2.3c.5.4.8.9.8,1.6s0,.8-.3,1.1c-.5.6-1.1.9-1.7.9s-.8-.2-1.2-.3c-1.6-1-3.2-1.6-5.6-1.6-3.9,0-6.3,2.1-6.3,5.2,0,8.7,17.1,5.4,17.1,17.4s-5.1,9.5-11.4,9.5c-3.8,0-6.9-1.6-9.8-4.1Z"/>
          </g>
          <g>
            <path class="cls-7" d="M657.2,1380c-1.5,0-3,0-4.5-.2-8.5-.5-15,7.5-12.9,15.7l78.5,301.7c2.1,8.1,11.3,11.8,18.5,7.7,50.4-28.8,85.2-82.2,87.6-144.4,3.6-96-71.2-176.8-167.2-180.5Z"/>
            <path class="cls-7" d="M500.9,1716.9c-12.7-5.2-21.7-17.7-21.7-32.3s2.9-15.8,7.6-21.8l-34.6-132.5c-2.1-7.9-13.3-7.9-15.4,0l-85.6,328.1c-1.3,5,2.5,10,7.7,10h171.2c5.2,0,9-4.9,7.7-10l-36.9-141.5Z"/>
            <path class="cls-7" d="M713.8,1852l-119.4-459.5c-1.5-5.8-6.7-9.8-12.7-9.8h-105.7c-8.6,0-14.8,8.1-12.7,16.4l65.2,253.1c0,.3.2.6.3.9,11.8,5.6,20,17.6,20,31.6s-2.5,14.7-6.6,20.4c0,.3,0,.6.2.9l39.3,152.6c1.5,5.8,6.7,9.8,12.7,9.8h106.6c8.7,0,14.9-8.1,12.8-16.4Z"/>
            <circle class="cls-7" cx="514" cy="1684.6" r="20.8"/>
          </g>
        </g>
        <g>
          <g>
            <path d="M1123.4,1950.3h-25l-6.3,15c-.7,1.7-1.7,2.2-3,2.2-2,0-3.1-1.5-3.1-3.1s.2-.9.3-1.4l21-48.8c.7-1.6,2-2.7,3.8-2.7s3.1,1.2,3.8,2.7l21,48.5c.2.5.2.9.2,1.3,0,1.7-1.2,3.4-3.2,3.4s-2.6-.9-3.1-2.2l-6.4-14.9ZM1110.9,1920.6l-9.9,23.5h19.8l-9.9-23.5Z"/>
            <path d="M1160.6,1911.9c15.7,0,20.3,8.5,20.3,17s-6.4,17.3-19.8,17.3-5.5,0-8.2-.3v18.4c0,1.8-1.5,3.3-3.3,3.3s-3.4-1.5-3.4-3.3v-48.9c0-1.8,1.5-3.3,3.3-3.3,3.6-.2,8.5-.2,11.1-.2ZM1152.9,1939.5c2.7.2,5.3.4,8,.4,8.1,0,13-4.2,13-11.1s-3.9-10.7-12.6-10.7-5.7,0-8.3.2v21.2h0Z"/>
            <path d="M1233.3,1911.6c1.8,0,3.3,1.5,3.3,3.2v49.4c0,1.8-1.5,3.3-3.3,3.3s-3.4-1.5-3.4-3.3v-22.1h-30.2v22.1c0,1.8-1.5,3.3-3.3,3.3s-3.4-1.5-3.4-3.3v-49.4c0-1.7,1.5-3.2,3.4-3.2s3.3,1.5,3.3,3.2v21h30.2v-21c0-1.7,1.6-3.2,3.4-3.2Z"/>
            <path d="M1281.9,1960.7c1.6,0,3.1,1.4,3.1,3.1s-1.4,3.1-3.1,3.1h-25.4c-1.8,0-3.3-1.5-3.3-3.3v-48.4c0-1.8,1.5-3.3,3.3-3.3h24.7c1.6,0,3.1,1.4,3.1,3.1s-1.4,3.1-3.1,3.1h-21.3v17.7h18.9c1.6,0,3.1,1.4,3.1,3.1s-1.4,3.1-3.1,3.1h-18.9v18.4l22,.3h0Z"/>
            <path d="M1297.3,1911.6c1.4,0,2.2.8,3.3,2.4l14.5,20,14.3-20c1.2-1.7,2.2-2.4,3.6-2.4s3.1,1.3,3.1,3-.2,1.3-.7,2l-16.1,22.4,17,23.6c.4.5.6,1.1.6,1.7,0,1.6-1.2,3.2-3.1,3.2s-2.2-.6-3.2-2l-15.6-21.4-15.5,21.4c-.9,1.2-2,2-3.3,2-1.9,0-3.1-1.5-3.1-3.1s.2-1.4.7-2l16.9-23.3-15.9-22.2c-.5-.6-.6-1.3-.6-2-.2-1.8,1-3.3,3.1-3.3Z"/>
            <path d="M1380,1911.9c15.7,0,20.3,8.5,20.3,17s-6.4,17.3-19.8,17.3-5.5,0-8.2-.3v18.4c0,1.8-1.5,3.3-3.3,3.3s-3.4-1.5-3.4-3.3v-48.9c0-1.8,1.5-3.3,3.3-3.3,3.7-.2,8.6-.2,11.1-.2ZM1372.3,1939.5c2.7.2,5.3.4,8,.4,8.1,0,13-4.2,13-11.1s-3.9-10.7-12.6-10.7-5.7,0-8.3.2v21.2h0Z"/>
            <path d="M1452.8,1911.6c1.8,0,3.3,1.5,3.3,3.2v49.4c0,1.8-1.5,3.3-3.3,3.3s-3.4-1.5-3.4-3.3v-22.1h-30.2v22.1c0,1.8-1.5,3.3-3.3,3.3s-3.4-1.5-3.4-3.3v-49.4c0-1.7,1.5-3.2,3.4-3.2s3.3,1.5,3.3,3.2v21h30.2v-21c0-1.7,1.5-3.2,3.4-3.2Z"/>
            <path d="M1503.6,1950.3h-25l-6.3,15c-.7,1.7-1.7,2.2-3,2.2-2,0-3.1-1.5-3.1-3.1s.2-.9.3-1.4l21-48.8c.7-1.6,2-2.7,3.8-2.7s3.1,1.2,3.8,2.7l21,48.5c.2.5.2.9.2,1.3,0,1.7-1.2,3.4-3.2,3.4s-2.6-.9-3.1-2.2l-6.4-14.9ZM1491.1,1920.6l-9.9,23.5h19.8l-9.9-23.5Z"/>
            <path d="M1561.2,1967.5c-1.4,0-2.4-.7-3.4-1.9l-15.8-20.6h-9v19.2c0,1.8-1.5,3.3-3.3,3.3s-3.4-1.5-3.4-3.3v-48.9c0-1.8,1.5-3.3,3.3-3.3,4.2,0,10.3-.2,11.5-.2,15,0,19.6,7.5,19.6,16.3s-5.9,14-11.9,15.5l14.6,18.5c.6.7.9,1.6.9,2.3,0,1.7-1.2,3.1-3.1,3.1ZM1533.1,1938.7h8.1c6.4,0,12.5-3.9,12.5-10.4s-3.1-10.1-12.9-10.1-5.1,0-7.7.2v20.3Z"/>
            <path d="M1606,1945.7c-1.1,1.5-2.3,2.1-3.5,2.1s-2.4-.6-3.5-2.1l-16.6-22.8v41.3c0,1.8-1.5,3.3-3.3,3.3s-3.4-1.5-3.4-3.3v-48.4c0-2.5,1.6-4.2,3.8-4.2s3.3,1.1,4.3,2.5l19.2,26.1,18.5-26.3c.8-1.2,2-2.3,3.8-2.3s3.8,1.9,3.8,3.8v48.8c0,1.8-1.5,3.3-3.3,3.3s-3.4-1.5-3.4-3.3v-41.8l-16.4,23.3Z"/>
            <path d="M1676.7,1950.3h-25l-6.3,15c-.7,1.7-1.7,2.2-3,2.2-2,0-3.1-1.5-3.1-3.1s.2-.9.3-1.4l21-48.8c.7-1.6,2-2.7,3.8-2.7s3.1,1.2,3.8,2.7l21,48.5c.2.5.2.9.2,1.3,0,1.7-1.2,3.4-3.2,3.4s-2.6-.9-3.1-2.2l-6.4-14.9ZM1664.2,1920.6l-9.9,23.5h19.8l-9.9-23.5Z"/>
          </g>
          <g>
            <path d="M1202.9,2035.6c-.4-.4-.6-.9-.6-1.4s.2-.9.4-1.2c.4-.5,1-.8,1.6-.8s.8,0,1.2.3c2.7,1.9,4.7,3.1,7.2,3.1,3.7,0,6.9-1.9,6.9-5.4,0-8.6-17.1-5.8-17.1-17.4s3.9-9.2,10.6-9.2,6,.9,8.2,2.3c.5.4.8.9.8,1.6s0,.8-.3,1.1c-.4.6-1.1.9-1.7.9s-.8-.2-1.2-.3c-1.7-1-3.2-1.6-5.6-1.6-3.9,0-6.3,2.1-6.3,5.2,0,8.7,17.1,5.4,17.1,17.4s-5.1,9.5-11.4,9.5c-3.8,0-6.9-1.6-9.8-4.1Z"/>
            <path d="M1238.8,2021.6c0-10.2,7.5-18,17.9-18s17.9,7.4,17.9,18-7.7,18-17.9,18-17.9-7.3-17.9-18ZM1243.3,2021.6c0,7.9,5.8,14,13.4,14s13.4-6.1,13.4-14-5.9-14-13.4-14-13.4,5.9-13.4,14Z"/>
            <path d="M1311.8,2035.1c1.1,0,1.9.9,1.9,2s-.9,2-1.9,2h-17.5c-1.2,0-2.1-.9-2.1-2.1v-31.1c0-1.1.9-2.1,2.2-2.1s2.1.9,2.1,2.1v29.2h15.3Z"/>
            <path d="M1343.8,2035.6c5.8,0,9.3-3.9,9.3-11.9v-17.8c0-1.1.9-2.1,2.2-2.1s2.1.9,2.1,2.1v18.6c0,10.7-6.4,15.1-13.6,15.1s-14.5-5.2-14.5-15.4v-18.3c0-1.1.9-2.1,2.1-2.1s2.1.9,2.1,2.1v17.5c0,7.6,3.7,12.2,10.3,12.2Z"/>
            <path d="M1389.1,2037.4c0,1.2-.9,2.1-2.1,2.1s-2.1-.9-2.1-2.1v-29.3h-10.3c-1.1,0-1.9-.9-1.9-2s.9-2,1.9-2h24.9c1.1,0,1.9.9,1.9,2s-.9,2-1.9,2h-10.3v29.3h0Z"/>
            <path d="M1420.2,2003.9c1.2,0,2.1.9,2.1,2.1v31.5c0,1.2-.9,2.1-2.1,2.1s-2.1-.9-2.1-2.1v-31.5c0-1.2.9-2.1,2.1-2.1Z"/>
            <path d="M1441.1,2021.6c0-10.2,7.4-18,17.9-18s17.9,7.4,17.9,18-7.7,18-17.9,18-17.9-7.3-17.9-18ZM1445.6,2021.6c0,7.9,5.9,14,13.4,14s13.4-6.1,13.4-14-5.9-14-13.4-14-13.4,5.9-13.4,14Z"/>
            <path d="M1519.8,2005.8c0-1.1.9-1.9,2-1.9s2,.9,2,1.9v31.5c0,1.2-.7,2.1-1.8,2.1s-1.7-.5-2.6-1.6l-20.9-26.4v26c0,1.1-.9,1.9-2,1.9s-2-.9-2-1.9v-31.3c0-1.2.6-2.3,1.9-2.3s1.7.5,2.7,1.8l20.6,26.1v-25.9h.1Z"/>
            <path d="M1541.9,2035.6c-.4-.4-.6-.9-.6-1.4s.2-.9.4-1.2c.4-.5,1-.8,1.6-.8s.8,0,1.2.3c2.7,1.9,4.7,3.1,7.2,3.1,3.7,0,6.9-1.9,6.9-5.4,0-8.6-17.1-5.8-17.1-17.4s3.9-9.2,10.6-9.2,6,.9,8.2,2.3c.5.4.8.9.8,1.6s0,.8-.3,1.1c-.4.6-1.1.9-1.7.9s-.8-.2-1.2-.3c-1.6-1-3.2-1.6-5.6-1.6-3.9,0-6.3,2.1-6.3,5.2,0,8.7,17.1,5.4,17.1,17.4s-5.1,9.5-11.4,9.5c-3.8,0-6.9-1.6-9.8-4.1Z"/>
          </g>
          <g>
            <path d="M1457.2,1380c-1.5,0-3,0-4.5-.2-8.5-.5-15,7.5-12.9,15.7l78.5,301.7c2.1,8.1,11.3,11.8,18.5,7.7,50.4-28.8,85.2-82.2,87.6-144.4,3.6-96-71.2-176.8-167.2-180.5Z"/>
            <path d="M1300.9,1716.9c-12.7-5.2-21.7-17.7-21.7-32.3s2.9-15.8,7.6-21.8l-34.6-132.5c-2.1-7.9-13.3-7.9-15.4,0l-85.6,328.1c-1.3,5,2.5,10,7.7,10h171.2c5.2,0,9-4.9,7.7-10l-36.9-141.5Z"/>
            <path d="M1513.8,1852l-119.4-459.5c-1.5-5.8-6.7-9.8-12.7-9.8h-105.7c-8.6,0-14.8,8.1-12.7,16.4l65.2,253.1c0,.3.2.6.3.9,11.8,5.6,20,17.6,20,31.6s-2.5,14.7-6.6,20.4c0,.3,0,.6.2.9l39.3,152.6c1.5,5.8,6.7,9.8,12.7,9.8h106.6c8.7,0,14.9-8.1,12.8-16.4Z"/>
            <circle cx="1314.1" cy="1684.6" r="20.8"/>
          </g>
        </g>
        <rect class="cls-6" x="-612.3" y="1317.4" width="800" height="800"/>
        <g>
          <g>
            <path class="cls-7" d="M-476.6,1952.5h-25l-6.3,15c-.7,1.7-1.7,2.2-3,2.2-2,0-3.1-1.5-3.1-3.1s.2-.9.3-1.4l21-48.8c.7-1.6,2-2.7,3.8-2.7s3.1,1.2,3.8,2.7l21,48.5c.2.5.2.9.2,1.3,0,1.7-1.2,3.4-3.2,3.4s-2.6-.9-3.1-2.2l-6.4-14.9ZM-489.1,1922.7l-9.9,23.5h19.8l-9.9-23.5Z"/>
            <path class="cls-7" d="M-439.4,1914c15.7,0,20.3,8.5,20.3,17s-6.4,17.3-19.8,17.3-5.5,0-8.2-.3v18.4c0,1.8-1.5,3.3-3.3,3.3s-3.4-1.5-3.4-3.3v-48.9c0-1.8,1.5-3.3,3.3-3.3,3.6,0,8.5-.2,11.1-.2ZM-447.1,1941.6c2.7.2,5.3.4,8,.4,8.1,0,13-4.2,13-11.1s-3.9-10.7-12.6-10.7-5.7,0-8.3.2v21.2h-.1Z"/>
            <path class="cls-7" d="M-366.7,1913.8c1.8,0,3.3,1.5,3.3,3.2v49.4c0,1.8-1.5,3.3-3.3,3.3s-3.4-1.5-3.4-3.3v-22.1h-30.2v22.1c0,1.8-1.5,3.3-3.3,3.3s-3.4-1.5-3.4-3.3v-49.4c0-1.7,1.5-3.2,3.4-3.2s3.3,1.5,3.3,3.2v21h30.2v-21c.1-1.8,1.6-3.2,3.4-3.2Z"/>
            <path class="cls-7" d="M-318.1,1962.8c1.6,0,3.1,1.4,3.1,3.1s-1.4,3.1-3.1,3.1h-25.4c-1.8,0-3.3-1.5-3.3-3.3v-48.4c0-1.8,1.5-3.3,3.3-3.3h24.7c1.6,0,3.1,1.4,3.1,3.1s-1.4,3.1-3.1,3.1h-21.3v17.7h18.9c1.6,0,3.1,1.4,3.1,3.1s-1.4,3.1-3.1,3.1h-18.9v18.4l22,.3h0Z"/>
            <path class="cls-7" d="M-302.7,1913.8c1.4,0,2.2.8,3.3,2.4l14.5,20,14.3-20c1.2-1.7,2.2-2.4,3.6-2.4s3.1,1.3,3.1,3-.2,1.3-.7,2l-16.1,22.4,17,23.6c.4.5.5,1.1.5,1.7,0,1.6-1.2,3.2-3.1,3.2s-2.2-.6-3.2-2l-15.6-21.4-15.5,21.4c-.9,1.2-2,2-3.3,2-1.9,0-3.1-1.5-3.1-3.1s.2-1.4.7-2l16.9-23.3-15.9-22.2c-.5-.6-.6-1.3-.6-2,0-1.9,1.1-3.3,3.2-3.3Z"/>
            <path class="cls-7" d="M-220,1914c15.7,0,20.3,8.5,20.3,17s-6.4,17.3-19.8,17.3-5.5,0-8.2-.3v18.4c0,1.8-1.5,3.3-3.3,3.3s-3.4-1.5-3.4-3.3v-48.9c0-1.8,1.5-3.3,3.3-3.3,3.7,0,8.6-.2,11.1-.2ZM-227.7,1941.6c2.7.2,5.3.4,8,.4,8.1,0,13-4.2,13-11.1s-3.9-10.7-12.6-10.7-5.7,0-8.3.2c0,0,0,21.2,0,21.2Z"/>
            <path class="cls-7" d="M-147.2,1913.8c1.8,0,3.3,1.5,3.3,3.2v49.4c0,1.8-1.5,3.3-3.3,3.3s-3.4-1.5-3.4-3.3v-22.1h-30.2v22.1c0,1.8-1.5,3.3-3.3,3.3s-3.4-1.5-3.4-3.3v-49.4c0-1.7,1.5-3.2,3.4-3.2s3.3,1.5,3.3,3.2v21h30.2v-21c0-1.8,1.5-3.2,3.4-3.2Z"/>
            <path class="cls-7" d="M-96.4,1952.5h-25l-6.3,15c-.7,1.7-1.7,2.2-3,2.2-2,0-3.1-1.5-3.1-3.1s.2-.9.3-1.4l21-48.8c.7-1.6,2-2.7,3.8-2.7s3.1,1.2,3.8,2.7l21,48.5c.2.5.2.9.2,1.3,0,1.7-1.2,3.4-3.2,3.4s-2.6-.9-3.1-2.2l-6.4-14.9ZM-108.9,1922.7l-9.9,23.5h19.8l-9.9-23.5Z"/>
            <path class="cls-7" d="M-38.8,1969.7c-1.4,0-2.4-.7-3.4-1.9l-15.8-20.7h-9v19.2c0,1.8-1.5,3.3-3.3,3.3s-3.4-1.5-3.4-3.3v-48.9c0-1.8,1.5-3.3,3.3-3.3,4.2,0,10.3-.2,11.5-.2,15,0,19.6,7.5,19.6,16.3s-5.9,14-11.9,15.5l14.6,18.5c.6.7.9,1.6.9,2.3,0,1.8-1.2,3.2-3.1,3.2ZM-66.9,1940.8h8.1c6.4,0,12.5-3.9,12.5-10.4s-3.1-10.1-12.9-10.1-5.1,0-7.7.2v20.3h0Z"/>
            <path class="cls-7" d="M6,1947.8c-1.1,1.5-2.3,2.1-3.5,2.1s-2.4-.6-3.5-2.1l-16.6-22.8v41.3c0,1.8-1.5,3.3-3.3,3.3s-3.4-1.5-3.4-3.3v-48.3c0-2.5,1.6-4.2,3.8-4.2s3.3,1.1,4.3,2.5l19.2,26,18.5-26.3c.8-1.2,2-2.3,3.8-2.3s3.8,1.9,3.8,3.8v48.8c0,1.8-1.5,3.3-3.3,3.3s-3.4-1.5-3.4-3.3v-41.8l-16.4,23.3Z"/>
            <path class="cls-7" d="M76.7,1952.5h-25l-6.3,15c-.7,1.7-1.7,2.2-3,2.2-2,0-3.1-1.5-3.1-3.1s.2-.9.3-1.4l21-48.8c.7-1.6,2-2.7,3.8-2.7s3.1,1.2,3.8,2.7l21,48.5c.2.5.2.9.2,1.3,0,1.7-1.2,3.4-3.2,3.4s-2.6-.9-3.1-2.2l-6.4-14.9ZM64.2,1922.7l-9.9,23.5h19.8l-9.9-23.5Z"/>
          </g>
          <g>
            <path class="cls-7" d="M-397.1,2037.7c-.4-.4-.6-.9-.6-1.4s.1-.9.4-1.2c.4-.5,1-.8,1.6-.8s.8,0,1.1.3c2.6,1.9,4.7,3.1,7.2,3.1,3.6,0,6.9-1.9,6.9-5.4,0-8.6-17.1-5.8-17.1-17.4s3.9-9.2,10.5-9.2,6,.9,8.2,2.3c.5.4.8.9.8,1.6s-.1.8-.4,1.1c-.4.6-1,.9-1.6.9s-.8-.2-1.1-.3c-1.6-1-3.2-1.6-5.6-1.6-3.9,0-6.3,2.1-6.3,5.2,0,8.7,17.1,5.4,17.1,17.4s-5.1,9.5-11.4,9.5c-3.7,0-6.8-1.6-9.7-4.1Z"/>
            <path class="cls-7" d="M-361.2,2023.7c0-10.2,7.5-18,17.9-18s17.9,7.4,17.9,18-7.7,18-17.9,18-17.9-7.3-17.9-18ZM-356.7,2023.7c0,7.9,5.9,14,13.4,14s13.4-6.1,13.4-14-5.9-14-13.4-14-13.4,5.9-13.4,14Z"/>
            <path class="cls-7" d="M-288.2,2037.2c1,0,2,.9,2,2s-.9,2-2,2h-17.5c-1.1,0-2.1-.9-2.1-2.1v-31.1c0-1.1.9-2.1,2.1-2.1s2.1.9,2.1,2.1v29.2h15.4Z"/>
            <path class="cls-7" d="M-256.2,2037.7c5.8,0,9.3-3.9,9.3-11.9v-17.8c0-1.1.9-2.1,2.2-2.1s2.1.9,2.1,2.1v18.6c0,10.7-6.4,15.1-13.6,15.1s-14.5-5.2-14.5-15.4v-18.3c0-1.1.9-2.1,2.1-2.1s2.1.9,2.1,2.1v17.5c0,7.6,3.7,12.2,10.3,12.2Z"/>
            <path class="cls-7" d="M-210.9,2039.5c0,1.2-.9,2.1-2.1,2.1s-2.1-.9-2.1-2.1v-29.3h-10.3c-1,0-1.9-.9-1.9-2s.9-2,1.9-2h24.9c1.1,0,1.9.9,1.9,2s-.9,2-1.9,2h-10.3v29.3h0Z"/>
            <path class="cls-7" d="M-179.8,2006c1.1,0,2.1.9,2.1,2.1v31.5c0,1.2-.9,2.1-2.1,2.1s-2.2-.9-2.2-2.1v-31.6c.1-1.1,1-2,2.2-2Z"/>
            <path class="cls-7" d="M-158.9,2023.7c0-10.2,7.5-18,17.9-18s17.9,7.4,17.9,18-7.7,18-17.9,18-17.9-7.3-17.9-18ZM-154.4,2023.7c0,7.9,5.8,14,13.4,14s13.4-6.1,13.4-14-5.9-14-13.4-14-13.4,5.9-13.4,14Z"/>
            <path class="cls-7" d="M-80.2,2007.9c0-1.1.9-1.9,2-1.9s2,.9,2,1.9v31.5c0,1.2-.7,2.1-1.8,2.1s-1.7-.5-2.6-1.6l-20.9-26.4v26c0,1.1-.9,1.9-2,1.9s-2-.9-2-1.9v-31.3c0-1.2.6-2.3,1.9-2.3s1.7.5,2.7,1.8l20.6,26.1v-25.9h.1Z"/>
            <path class="cls-7" d="M-58.1,2037.7c-.4-.4-.6-.9-.6-1.4s0-.9.4-1.2c.4-.5,1-.8,1.6-.8s.8,0,1.1.3c2.6,1.9,4.7,3.1,7.2,3.1,3.6,0,6.9-1.9,6.9-5.4,0-8.6-17.1-5.8-17.1-17.4s3.9-9.2,10.6-9.2,6,.9,8.2,2.3c.5.4.8.9.8,1.6s0,.8-.4,1.1c-.4.6-1.1.9-1.6.9s-.8-.2-1.1-.3c-1.6-1-3.2-1.6-5.6-1.6-3.9,0-6.3,2.1-6.3,5.2,0,8.7,17.1,5.4,17.1,17.4s-5.1,9.5-11.4,9.5c-3.8,0-6.9-1.6-9.8-4.1Z"/>
          </g>
          <g>
            <path class="cls-7" d="M-142.8,1382.1c-1.5,0-3,0-4.5-.2-8.5-.5-15,7.5-12.9,15.7l78.5,301.7c2.1,8.1,11.3,11.8,18.5,7.7,50.4-28.8,85.2-82.2,87.6-144.4,3.6-96-71.2-176.8-167.2-180.5Z"/>
            <path class="cls-7" d="M-299.1,1719c-12.7-5.2-21.7-17.7-21.7-32.3s2.9-15.8,7.6-21.8l-34.6-132.5c-2.1-7.9-13.4-7.9-15.4,0l-85.6,328.1c-1.3,5,2.5,10,7.7,10h171.2c5.2,0,9-4.9,7.7-10l-36.9-141.5Z"/>
            <path class="cls-7" d="M-86.2,1854.1l-119.4-459.5c-1.5-5.8-6.7-9.8-12.7-9.8h-105.7c-8.6,0-14.8,8.1-12.7,16.4l65.2,253.1c.1.3.2.6.3.9,11.8,5.6,20,17.6,20,31.6s-2.5,14.7-6.6,20.4c.1.3.1.6.2.9l39.3,152.6c1.5,5.8,6.7,9.8,12.7,9.8h106.6c8.7,0,14.9-8,12.8-16.4Z"/>
            <circle class="cls-7" cx="-286" cy="1686.7" r="20.8"/>
          </g>
        </g>
        <g>
          <g>
            <path class="cls-1" d="M-1276.6,1958.1h-25l-6.3,15c-.7,1.7-1.7,2.2-3,2.2-2,0-3.1-1.5-3.1-3.1s.2-.9.3-1.4l21-48.8c.7-1.6,2-2.7,3.8-2.7s3.1,1.2,3.8,2.7l21,48.5c.2.5.2.9.2,1.3,0,1.7-1.2,3.4-3.2,3.4s-2.6-.9-3.1-2.2l-6.4-14.9ZM-1289.1,1928.3l-9.9,23.5h19.8l-9.9-23.5Z"/>
            <path class="cls-1" d="M-1239.4,1919.6c15.7,0,20.3,8.5,20.3,17s-6.4,17.3-19.8,17.3-5.5,0-8.2-.3v18.4c0,1.8-1.5,3.3-3.3,3.3s-3.4-1.5-3.4-3.3v-48.9c0-1.8,1.5-3.3,3.3-3.3,3.6,0,8.5-.2,11.1-.2ZM-1247.1,1947.3c2.7.2,5.3.4,8,.4,8.1,0,13-4.2,13-11.1s-3.9-10.7-12.6-10.7-5.7,0-8.3.2v21.2h0Z"/>
            <path class="cls-1" d="M-1166.7,1919.4c1.8,0,3.3,1.5,3.3,3.2v49.4c0,1.8-1.5,3.3-3.3,3.3s-3.4-1.5-3.4-3.3v-22.1h-30.2v22.1c0,1.8-1.5,3.3-3.3,3.3s-3.4-1.5-3.4-3.3v-49.4c0-1.7,1.5-3.2,3.4-3.2s3.3,1.5,3.3,3.2v21h30.2v-21c0-1.7,1.6-3.2,3.4-3.2Z"/>
            <path class="cls-1" d="M-1118.1,1968.5c1.6,0,3.1,1.4,3.1,3.1s-1.4,3.1-3.1,3.1h-25.4c-1.8,0-3.3-1.5-3.3-3.3v-48.4c0-1.8,1.5-3.3,3.3-3.3h24.7c1.6,0,3.1,1.4,3.1,3.1s-1.4,3.1-3.1,3.1h-21.3v17.7h18.9c1.6,0,3.1,1.4,3.1,3.1s-1.4,3.1-3.1,3.1h-18.9v18.4l22,.3h0Z"/>
            <path class="cls-1" d="M-1102.7,1919.4c1.4,0,2.2.8,3.3,2.4l14.5,20,14.3-20c1.2-1.7,2.2-2.4,3.6-2.4s3.1,1.3,3.1,3-.2,1.3-.7,2l-16.1,22.4,17,23.6c.4.5.5,1.1.5,1.7,0,1.6-1.2,3.2-3.1,3.2s-2.2-.6-3.2-2l-15.6-21.4-15.5,21.4c-.9,1.2-2,2-3.3,2-1.9,0-3.1-1.5-3.1-3.1s.2-1.4.7-2l16.9-23.3-15.9-22.2c-.5-.6-.6-1.3-.6-2-.1-1.8,1.1-3.3,3.2-3.3Z"/>
            <path class="cls-1" d="M-1020,1919.6c15.7,0,20.3,8.5,20.3,17s-6.4,17.3-19.8,17.3-5.5,0-8.2-.3v18.4c0,1.8-1.5,3.3-3.3,3.3s-3.4-1.5-3.4-3.3v-48.9c0-1.8,1.5-3.3,3.3-3.3,3.7,0,8.6-.2,11.1-.2ZM-1027.7,1947.3c2.7.2,5.3.4,8,.4,8.1,0,13-4.2,13-11.1s-3.9-10.7-12.6-10.7-5.7,0-8.3.2v21.2h0Z"/>
            <path class="cls-1" d="M-947.2,1919.4c1.8,0,3.3,1.5,3.3,3.2v49.4c0,1.8-1.5,3.3-3.3,3.3s-3.4-1.5-3.4-3.3v-22.1h-30.2v22.1c0,1.8-1.5,3.3-3.3,3.3s-3.4-1.5-3.4-3.3v-49.4c0-1.7,1.5-3.2,3.4-3.2s3.3,1.5,3.3,3.2v21h30.2v-21c0-1.7,1.5-3.2,3.4-3.2Z"/>
            <path class="cls-1" d="M-896.4,1958.1h-25l-6.3,15c-.7,1.7-1.7,2.2-3,2.2-2,0-3.1-1.5-3.1-3.1s.2-.9.3-1.4l21-48.8c.7-1.6,2-2.7,3.8-2.7s3.1,1.2,3.8,2.7l21,48.5c.2.5.2.9.2,1.3,0,1.7-1.2,3.4-3.2,3.4s-2.6-.9-3.1-2.2l-6.4-14.9ZM-908.9,1928.3l-9.9,23.5h19.8l-9.9-23.5Z"/>
            <path class="cls-1" d="M-838.8,1975.3c-1.4,0-2.4-.7-3.4-1.9l-15.8-20.7h-9v19.2c0,1.8-1.5,3.3-3.3,3.3s-3.4-1.5-3.4-3.3v-48.9c0-1.8,1.5-3.3,3.3-3.3,4.2,0,10.3-.2,11.5-.2,15,0,19.6,7.5,19.6,16.3s-5.9,14-11.9,15.5l14.6,18.5c.5.7.9,1.6.9,2.3,0,1.8-1.2,3.2-3.1,3.2ZM-866.9,1946.5h8.1c6.4,0,12.5-3.9,12.5-10.4s-3.1-10.1-12.9-10.1-5.1,0-7.7.2v20.3h0Z"/>
            <path class="cls-1" d="M-794,1953.5c-1.1,1.5-2.3,2.1-3.5,2.1s-2.4-.6-3.5-2.1l-16.6-22.8v41.3c0,1.8-1.5,3.3-3.3,3.3s-3.4-1.5-3.4-3.3v-48.4c0-2.5,1.6-4.2,3.8-4.2s3.3,1.1,4.3,2.5l19.2,26.1,18.5-26.3c.8-1.2,2-2.3,3.8-2.3s3.8,1.9,3.8,3.8v48.8c0,1.8-1.5,3.3-3.3,3.3s-3.4-1.5-3.4-3.3v-41.8l-16.4,23.3Z"/>
            <path class="cls-1" d="M-723.3,1958.1h-25l-6.3,15c-.7,1.7-1.7,2.2-3,2.2-2,0-3.1-1.5-3.1-3.1s.2-.9.3-1.4l21-48.8c.7-1.6,2-2.7,3.8-2.7s3.1,1.2,3.8,2.7l21,48.5c.2.5.2.9.2,1.3,0,1.7-1.2,3.4-3.2,3.4s-2.6-.9-3.1-2.2l-6.4-14.9ZM-735.8,1928.3l-9.9,23.5h19.8l-9.9-23.5Z"/>
          </g>
          <g>
            <path class="cls-8" d="M-1197.1,2043.4c-.4-.4-.6-.9-.6-1.4s.2-.9.5-1.2c.4-.5,1-.8,1.5-.8s.8,0,1.2.3c2.7,1.9,4.7,3.1,7.2,3.1,3.7,0,6.8-1.9,6.8-5.4,0-8.6-17.1-5.8-17.1-17.4s3.9-9.2,10.6-9.2,6,.9,8.2,2.3c.5.4.8.9.8,1.6s0,.8-.3,1.1c-.5.6-1.1.9-1.7.9s-.8-.2-1.2-.3c-1.7-1-3.2-1.6-5.6-1.6-3.9,0-6.3,2.1-6.3,5.2,0,8.7,17.1,5.4,17.1,17.4s-5,9.5-11.4,9.5c-3.7,0-6.8-1.7-9.7-4.1Z"/>
            <path class="cls-8" d="M-1161.2,2029.4c0-10.2,7.5-18,17.9-18s17.9,7.4,17.9,18-7.7,18-17.9,18-17.9-7.4-17.9-18ZM-1156.7,2029.4c0,7.9,5.8,14,13.4,14s13.4-6.1,13.4-14-5.9-14-13.4-14-13.4,5.8-13.4,14Z"/>
            <path class="cls-8" d="M-1088.2,2042.9c1.1,0,2,.9,2,2s-.9,2-2,2h-17.5c-1.2,0-2.1-.9-2.1-2.1v-31.1c0-1.1.9-2.1,2.2-2.1s2.1.9,2.1,2.1v29.2h15.3Z"/>
            <path class="cls-8" d="M-1056.2,2043.3c5.8,0,9.3-3.9,9.3-11.9v-17.8c0-1.1,1-2.1,2.2-2.1s2.1.9,2.1,2.1v18.6c0,10.7-6.4,15.1-13.6,15.1s-14.5-5.2-14.5-15.4v-18.3c0-1.1.9-2.1,2.2-2.1s2.1.9,2.1,2.1v17.5c0,7.6,3.6,12.2,10.2,12.2Z"/>
            <path class="cls-8" d="M-1010.9,2045.1c0,1.2-1,2.1-2.1,2.1s-2.2-.9-2.2-2.1v-29.3h-10.3c-1,0-1.9-.9-1.9-2s.9-2,1.9-2h24.9c1,0,2,.9,2,2s-.9,2-2,2h-10.3v29.3h0Z"/>
            <path class="cls-8" d="M-979.8,2011.6c1.2,0,2.1.9,2.1,2.1v31.5c0,1.2-1,2.1-2.1,2.1s-2.1-.9-2.1-2.1v-31.5c0-1.1.9-2.1,2.1-2.1Z"/>
            <path class="cls-8" d="M-958.9,2029.4c0-10.2,7.5-18,17.9-18s17.9,7.4,17.9,18-7.7,18-17.9,18-17.9-7.4-17.9-18ZM-954.4,2029.4c0,7.9,5.9,14,13.4,14s13.4-6.1,13.4-14-5.9-14-13.4-14-13.4,5.8-13.4,14Z"/>
            <path class="cls-8" d="M-880.2,2013.6c0-1.1.9-1.9,2-1.9s2,.9,2,1.9v31.5c0,1.2-.7,2.1-1.8,2.1s-1.7-.5-2.5-1.6l-20.9-26.4v26c0,1.1-.9,1.9-2,1.9s-2-.9-2-1.9v-31.2c0-1.2.6-2.3,2-2.3s1.7.5,2.7,1.8l20.6,26.1v-26h0Z"/>
            <path class="cls-8" d="M-858.1,2043.4c-.4-.4-.6-.9-.6-1.4s.2-.9.5-1.2c.4-.5,1-.8,1.5-.8s.8,0,1.2.3c2.7,1.9,4.7,3.1,7.2,3.1,3.7,0,6.9-1.9,6.9-5.4,0-8.6-17.1-5.8-17.1-17.4s3.9-9.2,10.6-9.2,6,.9,8.2,2.3c.5.4.8.9.8,1.6s0,.8-.3,1.1c-.5.6-1.1.9-1.7.9s-.8-.2-1.2-.3c-1.6-1-3.2-1.6-5.6-1.6-3.9,0-6.3,2.1-6.3,5.2,0,8.7,17.1,5.4,17.1,17.4s-5.1,9.5-11.4,9.5c-3.8,0-6.9-1.7-9.8-4.1Z"/>
          </g>
          <g>
            <path class="cls-5" d="M-942.8,1387.7c-1.5,0-3,0-4.5-.2-8.5-.5-15,7.5-12.9,15.7l78.5,301.7c2.1,8.1,11.3,11.8,18.5,7.7,50.4-28.8,85.2-82.2,87.6-144.4,3.6-96-71.2-176.8-167.2-180.5Z"/>
            <path class="cls-4" d="M-1099.1,1724.6c-12.7-5.2-21.7-17.7-21.7-32.3s2.9-15.8,7.6-21.8l-34.6-132.5c-2.1-7.9-13.3-7.9-15.4,0l-85.6,328.1c-1.3,5,2.5,10,7.7,10h171.2c5.2,0,9-4.9,7.7-10l-36.9-141.5Z"/>
            <path class="cls-3" d="M-886.2,1859.8l-119.4-459.5c-1.5-5.8-6.7-9.8-12.7-9.8h-105.7c-8.6,0-14.8,8.1-12.7,16.4l65.2,253.1c0,.3.2.6.3.9,11.8,5.6,20,17.6,20,31.6s-2.5,14.7-6.6,20.4c0,.3,0,.6.2.9l39.3,152.6c1.5,5.8,6.7,9.8,12.7,9.8h106.6c8.7,0,14.9-8.1,12.8-16.4Z"/>
            <circle class="cls-2" cx="-1086" cy="1692.3" r="20.8"/>
          </g>
        </g>
      </g>
      <g>
        <path class="cls-7" d="M484.7,102.5c-1.8-.1-3.7-.1-5.5-.2-10.4-.6-18.3,9.1-15.7,19.1l95.7,367.7c2.6,9.9,13.8,14.4,22.5,9.4,61.4-35.1,103.8-100.2,106.8-176,4.4-117-86.8-215.5-203.8-220Z"/>
        <path class="cls-7" d="M294.2,513.1c-15.5-6.3-26.4-21.6-26.4-39.4s3.5-19.3,9.3-26.6l-42.2-161.5c-2.6-9.6-16.3-9.6-18.8,0l-104.3,399.9c-1.6,6.1,3,12.2,9.4,12.2h208.6c6.3,0,11-6,9.4-12.2l-45-172.4Z"/>
        <path class="cls-7" d="M553.6,677.8L408.1,117.8c-1.8-7.1-8.3-11.9-15.5-11.9h-128.8c-10.5,0-18,9.9-15.5,20l79.5,308.5c.1.4.2.7.4,1.1,14.4,6.8,24.4,21.4,24.4,38.5s-3,17.9-8,24.9c.1.4.1.7.2,1.1l47.9,186c1.8,7.1,8.2,11.9,15.5,11.9h129.9c10.6.1,18.2-9.9,15.6-20Z"/>
        <circle class="cls-7" cx="310.1" cy="473.7" r="25.3"/>
      </g>
    </g>
  </g>
</svg>